<svg width="351" height="301" viewBox="0 0 351 301" fill="none" xmlns="http://www.w3.org/2000/svg">
<g filter="url(#filter0_d_247_24)">
<path d="M167.028 101.035C166.822 101.096 166.625 101.187 166.445 101.304L152.974 108.039C152.658 108.131 152.367 108.292 152.12 108.509C151.873 108.726 151.677 108.995 151.545 109.296C151.413 109.598 151.35 109.924 151.358 110.253C151.367 110.582 151.447 110.905 151.594 111.199C151.742 111.493 151.951 111.751 152.209 111.955C152.467 112.159 152.767 112.304 153.087 112.38C153.407 112.455 153.74 112.46 154.061 112.392C154.383 112.325 154.687 112.188 154.95 111.991L168.42 105.255C168.904 105.015 169.285 104.608 169.493 104.11C169.701 103.611 169.722 103.055 169.553 102.542C169.384 102.029 169.035 101.594 168.572 101.318C168.108 101.041 167.56 100.94 167.028 101.035ZM171.519 107.77C171.312 107.831 171.116 107.922 170.935 108.039L152.974 117.02C152.658 117.112 152.367 117.272 152.12 117.489C151.873 117.707 151.677 117.975 151.545 118.277C151.413 118.578 151.35 118.905 151.358 119.234C151.367 119.562 151.447 119.885 151.594 120.179C151.742 120.473 151.951 120.732 152.209 120.936C152.467 121.14 152.767 121.285 153.087 121.36C153.407 121.436 153.74 121.44 154.061 121.373C154.383 121.306 154.687 121.169 154.95 120.971L172.911 111.991C173.394 111.75 173.775 111.344 173.983 110.845C174.191 110.347 174.212 109.79 174.043 109.277C173.874 108.765 173.526 108.33 173.062 108.053C172.598 107.776 172.05 107.676 171.519 107.77ZM171.519 116.75C171.312 116.812 171.116 116.903 170.935 117.02L157.464 123.755C157.03 123.989 156.684 124.36 156.481 124.81C156.279 125.259 156.23 125.763 156.342 126.244C156.455 126.724 156.722 127.154 157.104 127.468C157.485 127.781 157.959 127.959 158.452 127.976H167.433C167.727 128.023 168.029 128.012 168.319 127.943C168.61 127.873 168.884 127.748 169.125 127.573C169.367 127.397 169.572 127.176 169.729 126.922C169.885 126.668 169.99 126.385 170.037 126.09C170.084 125.795 170.073 125.494 170.004 125.204C169.934 124.913 169.809 124.639 169.633 124.397C169.458 124.156 169.237 123.951 168.983 123.794C168.729 123.638 168.446 123.533 168.151 123.486L172.911 120.971C173.394 120.731 173.775 120.324 173.983 119.826C174.191 119.327 174.212 118.771 174.043 118.258C173.874 117.745 173.526 117.31 173.062 117.034C172.598 116.757 172.05 116.656 171.519 116.75ZM160.024 132.466C159.428 132.562 158.895 132.89 158.541 133.378C158.188 133.866 158.042 134.475 158.138 135.071C158.233 135.666 158.561 136.199 159.049 136.553C159.538 136.907 160.147 137.052 160.742 136.957H165.232C165.828 136.957 166.399 136.72 166.82 136.299C167.241 135.878 167.478 135.307 167.478 134.712C167.478 134.116 167.241 133.545 166.82 133.124C166.399 132.703 165.828 132.466 165.232 132.466H160.742C160.608 132.454 160.472 132.454 160.338 132.466C160.248 132.461 160.158 132.461 160.069 132.466H160.024Z" fill="#FFDA00"/>
</g>
<g filter="url(#filter1_d_247_24)">
<path d="M70.8772 187.35L54.3679 188.143L54.2358 172.888H46.6415L46.1792 187.35H31.3868L32.6415 140.926L48.3584 141.652L47.3679 165.36H54.698L54.7641 139.869L69.8206 140.265L70.8772 187.35ZM116.524 162.058C116.524 164.061 116.293 165.998 115.83 167.869C115.368 169.718 114.697 171.457 113.816 173.086C112.958 174.715 111.901 176.212 110.646 177.577C109.414 178.919 108.016 180.075 106.453 181.044C104.912 182.012 103.228 182.772 101.401 183.322C99.5741 183.85 97.637 184.114 95.5898 184.114C93.6087 184.114 91.7156 183.861 89.9106 183.355C88.1276 182.849 86.4546 182.144 84.8917 181.242C83.3289 180.317 81.909 179.217 80.6323 177.94C79.3776 176.641 78.299 175.21 77.3965 173.647C76.516 172.063 75.8226 170.368 75.3163 168.563C74.832 166.758 74.5899 164.875 74.5899 162.916C74.5899 161.001 74.821 159.13 75.2833 157.303C75.7455 155.454 76.4059 153.715 77.2644 152.086C78.1449 150.457 79.2015 148.96 80.4342 147.596C81.6669 146.231 83.0427 145.053 84.5616 144.063C86.1024 143.072 87.7644 142.302 89.5474 141.751C91.3304 141.201 93.2125 140.926 95.1936 140.926C98.3854 140.926 101.291 141.421 103.911 142.412C106.552 143.402 108.797 144.822 110.646 146.671C112.517 148.498 113.959 150.721 114.972 153.341C116.006 155.938 116.524 158.844 116.524 162.058ZM101.863 162.916C101.863 161.97 101.72 161.056 101.434 160.176C101.17 159.273 100.774 158.481 100.245 157.798C99.7172 157.094 99.0568 156.533 98.2643 156.114C97.4939 155.674 96.6024 155.454 95.5898 155.454C94.5552 155.454 93.6307 155.641 92.8162 156.015C92.0018 156.39 91.2974 156.907 90.703 157.567C90.1307 158.206 89.6905 158.965 89.3823 159.846C89.0741 160.704 88.92 161.618 88.92 162.586C88.92 163.511 89.0521 164.435 89.3163 165.36C89.5804 166.284 89.9766 167.121 90.5049 167.869C91.0332 168.618 91.6826 169.223 92.453 169.685C93.2455 170.147 94.159 170.379 95.1936 170.379C96.2282 170.379 97.1527 170.18 97.9672 169.784C98.8037 169.366 99.5081 168.816 100.08 168.133C100.653 167.429 101.093 166.625 101.401 165.723C101.709 164.82 101.863 163.885 101.863 162.916ZM149.821 169.85L148.434 184.511L120.633 186.69L121.689 139.539H138.859L136.416 169.85H149.821ZM170.638 140.86L168.326 185.831L154.392 186.558L153.072 141.784L170.638 140.86ZM212.784 161.133C212.784 164.215 212.388 166.978 211.595 169.421C210.803 171.864 209.691 174.033 208.26 175.926C206.852 177.797 205.168 179.393 203.209 180.713C201.249 182.034 199.103 183.124 196.77 183.982C194.437 184.819 191.949 185.435 189.308 185.831C186.688 186.228 183.992 186.426 181.218 186.426C180.183 186.426 179.171 186.404 178.18 186.36C177.19 186.294 176.177 186.206 175.143 186.096L176.067 143.105C178.489 142.335 180.976 141.795 183.529 141.487C186.105 141.157 188.658 140.992 191.19 140.992C194.338 140.992 197.232 141.432 199.874 142.313C202.515 143.193 204.793 144.492 206.709 146.209C208.624 147.904 210.11 150.006 211.166 152.515C212.245 155.003 212.784 157.875 212.784 161.133ZM190.331 173.813C191.652 173.614 192.852 173.218 193.93 172.624C195.031 172.007 195.977 171.259 196.77 170.379C197.562 169.476 198.168 168.463 198.586 167.341C199.026 166.196 199.246 164.986 199.246 163.709C199.246 162.454 199.114 161.287 198.85 160.209C198.586 159.108 198.157 158.162 197.562 157.369C196.968 156.555 196.187 155.916 195.218 155.454C194.249 154.97 193.061 154.706 191.652 154.662L190.331 173.813ZM256.813 184.511L240.435 186.624L238.454 179.162H230.926L229.275 186.624L212.435 184.973L225.577 140.992L243.935 140.067L256.813 184.511ZM237.265 169.058L234.756 157.567L232.313 169.058H237.265ZM296.219 142.643L280.7 168.001L281.162 186.69H264.19L264.587 168.133L252.502 143.633L269.341 141.52L274.624 155.784L280.37 141.52L296.219 142.643ZM82.9458 275.35L61.5622 276.377L61.3911 256.618H51.5547L50.9559 275.35H31.7962L33.4214 215.22L53.7786 216.16L52.4955 246.867H61.9898L62.0754 213.851L81.5772 214.364L82.9458 275.35ZM143.566 271.672L122.353 274.409L119.787 264.744H110.036L107.898 274.409L86.0866 272.271L103.108 215.305L126.886 214.108L143.566 271.672ZM118.248 251.657L114.997 236.774L111.832 251.657H118.248ZM186.779 216.93L185.24 234.978C184.413 234.75 183.6 234.593 182.802 234.508C182.004 234.422 181.191 234.379 180.364 234.379C178.34 234.379 176.401 234.636 174.548 235.149C172.723 235.662 171.098 236.446 169.672 237.501C168.275 238.556 167.149 239.896 166.294 241.521C165.467 243.118 165.054 245.014 165.054 247.209C165.054 248.806 165.282 250.203 165.738 251.401C166.223 252.57 166.893 253.553 167.748 254.352C168.632 255.121 169.687 255.706 170.913 256.105C172.167 256.504 173.55 256.704 175.061 256.704C176.116 256.704 177.199 256.604 178.311 256.404C179.423 256.176 180.535 255.877 181.647 255.506C182.759 255.136 183.828 254.708 184.855 254.223C185.881 253.739 186.836 253.225 187.72 252.684L187.036 272.784C185.924 273.354 184.727 273.868 183.444 274.324C182.16 274.751 180.835 275.122 179.466 275.436C178.126 275.778 176.772 276.034 175.403 276.206C174.063 276.377 172.78 276.462 171.554 276.462C167.506 276.462 163.813 275.707 160.478 274.196C157.17 272.684 154.319 270.632 151.924 268.037C149.558 265.414 147.719 262.378 146.407 258.928C145.096 255.478 144.44 251.8 144.44 247.894C144.44 243.218 145.096 238.856 146.407 234.807C147.747 230.758 149.7 227.251 152.266 224.286C154.861 221.293 158.054 218.955 161.846 217.272C165.667 215.562 170.043 214.706 174.976 214.706C176.943 214.706 178.939 214.863 180.963 215.177C182.987 215.49 184.926 216.075 186.779 216.93ZM246.073 220.095L227.17 242.591L244.534 272.014L224.69 275.521L211.689 257.901L211.004 274.666L193.213 275.35L194.582 214.108L214.511 215.22L212.972 232.84L225.374 214.963L246.073 220.095ZM291.896 253.453C291.896 257.359 291.212 260.738 289.843 263.589C288.503 266.412 286.65 268.75 284.283 270.603C281.945 272.428 279.194 273.782 276.029 274.666C272.893 275.521 269.514 275.949 265.893 275.949C264.496 275.949 262.957 275.764 261.275 275.393C259.621 275.022 257.939 274.566 256.228 274.024C254.517 273.454 252.864 272.855 251.267 272.228C249.699 271.572 248.302 270.959 247.076 270.389L248.958 253.624C251.381 255.079 254.061 256.191 256.998 256.96C259.963 257.702 262.871 258.072 265.722 258.072C266.264 258.072 266.92 258.058 267.69 258.03C268.46 257.972 269.187 257.844 269.871 257.645C270.584 257.417 271.182 257.089 271.667 256.661C272.152 256.233 272.394 255.62 272.394 254.822C272.394 254.28 272.223 253.824 271.881 253.453C271.539 253.054 271.097 252.741 270.555 252.513C270.013 252.256 269.4 252.071 268.716 251.957C268.032 251.814 267.362 251.714 266.706 251.657C266.05 251.6 265.437 251.572 264.867 251.572C264.297 251.572 263.841 251.572 263.499 251.572C261.047 251.572 258.808 251.187 256.784 250.417C254.788 249.647 253.063 248.564 251.609 247.167C250.184 245.741 249.072 244.03 248.273 242.035C247.475 240.01 247.076 237.772 247.076 235.32C247.076 231.956 247.746 228.948 249.086 226.296C250.455 223.616 252.265 221.35 254.517 219.496C256.798 217.615 259.407 216.175 262.344 215.177C265.28 214.179 268.317 213.68 271.453 213.68C272.85 213.68 274.29 213.737 275.773 213.851C277.255 213.937 278.724 214.108 280.178 214.364C281.66 214.621 283.1 214.949 284.497 215.348C285.894 215.747 287.22 216.246 288.475 216.845L286.849 234.208C284.911 233.552 282.872 233.011 280.734 232.583C278.624 232.127 276.557 231.899 274.532 231.899C274.162 231.899 273.677 231.913 273.078 231.942C272.508 231.942 271.895 231.984 271.239 232.07C270.612 232.127 269.971 232.227 269.315 232.369C268.659 232.512 268.075 232.711 267.561 232.968C267.048 233.196 266.635 233.51 266.321 233.909C266.008 234.308 265.865 234.778 265.893 235.32C265.922 235.947 266.15 236.432 266.578 236.774C267.034 237.116 267.604 237.373 268.288 237.544C269.001 237.687 269.771 237.758 270.598 237.758C271.453 237.758 272.294 237.744 273.121 237.715C273.948 237.658 274.718 237.615 275.431 237.587C276.143 237.53 276.728 237.516 277.184 237.544C279.465 237.687 281.518 238.171 283.342 238.998C285.167 239.825 286.707 240.923 287.961 242.291C289.244 243.66 290.214 245.299 290.87 247.209C291.554 249.091 291.896 251.173 291.896 253.453Z" fill="white"/>
</g>
<path d="M35.5685 292.142H32.2417L31.6071 293.677H29.9079L33.1016 286.512H34.7394L37.9433 293.677H36.2031L35.5685 292.142ZM35.0465 290.883L33.9102 288.139L32.774 290.883H35.0465ZM46.4888 292.326V293.677H41.0738V292.602L43.8376 289.992C44.131 289.712 44.3289 289.473 44.4313 289.276C44.5337 289.071 44.5849 288.87 44.5849 288.672C44.5849 288.385 44.4859 288.167 44.288 288.016C44.0969 287.86 43.8137 287.781 43.4384 287.781C43.1245 287.781 42.8413 287.842 42.5888 287.965C42.3363 288.081 42.1248 288.259 41.9541 288.498L40.7463 287.72C41.0261 287.303 41.4116 286.979 41.903 286.747C42.3943 286.508 42.9573 286.389 43.5919 286.389C44.1242 286.389 44.5883 286.478 44.9841 286.655C45.3867 286.826 45.6972 287.071 45.9156 287.392C46.1408 287.706 46.2534 288.078 46.2534 288.508C46.2534 288.897 46.1715 289.262 46.0077 289.603C45.8439 289.944 45.5266 290.333 45.0557 290.77L43.4077 292.326H46.4888ZM53.6345 292.172H52.4675V293.677H50.8502V292.172H46.9912V291.057L50.3691 286.512H52.1093L48.977 290.821H50.9014V289.48H52.4675V290.821H53.6345V292.172ZM54.3635 290.156H57.2603V291.435H54.3635V290.156ZM61.864 288.088C62.5464 288.088 63.0958 288.293 63.512 288.702C63.9351 289.112 64.1467 289.719 64.1467 290.524V293.677H62.5498V290.77C62.5498 290.333 62.4543 290.009 62.2632 289.798C62.0721 289.579 61.7958 289.47 61.4341 289.47C61.0314 289.47 60.7107 289.596 60.4719 289.849C60.233 290.094 60.1136 290.463 60.1136 290.954V293.677H58.5168V286.082H60.1136V288.743C60.3252 288.532 60.5811 288.371 60.8813 288.262C61.1816 288.146 61.5091 288.088 61.864 288.088ZM68.2746 293.759C67.6945 293.759 67.1725 293.64 66.7084 293.401C66.2512 293.155 65.893 292.817 65.6336 292.387C65.3743 291.957 65.2447 291.47 65.2447 290.924C65.2447 290.378 65.3743 289.89 65.6336 289.46C65.893 289.03 66.2512 288.695 66.7084 288.457C67.1725 288.211 67.6945 288.088 68.2746 288.088C68.8546 288.088 69.3733 288.211 69.8305 288.457C70.2877 288.695 70.646 289.03 70.9053 289.46C71.1646 289.89 71.2943 290.378 71.2943 290.924C71.2943 291.47 71.1646 291.957 70.9053 292.387C70.646 292.817 70.2877 293.155 69.8305 293.401C69.3733 293.64 68.8546 293.759 68.2746 293.759ZM68.2746 292.449C68.684 292.449 69.0184 292.312 69.2777 292.039C69.5439 291.76 69.6769 291.388 69.6769 290.924C69.6769 290.46 69.5439 290.091 69.2777 289.818C69.0184 289.538 68.684 289.398 68.2746 289.398C67.8651 289.398 67.5273 289.538 67.2612 289.818C66.9951 290.091 66.862 290.46 66.862 290.924C66.862 291.388 66.9951 291.76 67.2612 292.039C67.5273 292.312 67.8651 292.449 68.2746 292.449ZM77.9097 288.17V293.677H76.3947V293.022C76.1832 293.261 75.9307 293.445 75.6372 293.575C75.3438 293.698 75.0265 293.759 74.6853 293.759C73.9619 293.759 73.3887 293.551 72.9656 293.135C72.5425 292.718 72.3309 292.101 72.3309 291.282V288.17H73.9278V291.046C73.9278 291.934 74.2997 292.377 75.0435 292.377C75.4257 292.377 75.7328 292.254 75.9648 292.009C76.1968 291.756 76.3128 291.384 76.3128 290.893V288.17H77.9097ZM80.9142 288.897C81.1053 288.631 81.3612 288.429 81.682 288.293C82.0095 288.156 82.3848 288.088 82.8079 288.088V289.562C82.6305 289.549 82.5111 289.542 82.4497 289.542C81.9925 289.542 81.6342 289.671 81.3749 289.931C81.1156 290.183 80.9859 290.565 80.9859 291.077V293.677H79.389V288.17H80.9142V288.897ZM89.3168 293.759C88.7368 293.759 88.2147 293.64 87.7507 293.401C87.2935 293.155 86.9352 292.817 86.6759 292.387C86.4166 291.957 86.2869 291.47 86.2869 290.924C86.2869 290.378 86.4166 289.89 86.6759 289.46C86.9352 289.03 87.2935 288.695 87.7507 288.457C88.2147 288.211 88.7368 288.088 89.3168 288.088C89.8969 288.088 90.4155 288.211 90.8727 288.457C91.3299 288.695 91.6882 289.03 91.9475 289.46C92.2068 289.89 92.3365 290.378 92.3365 290.924C92.3365 291.47 92.2068 291.957 91.9475 292.387C91.6882 292.817 91.3299 293.155 90.8727 293.401C90.4155 293.64 89.8969 293.759 89.3168 293.759ZM89.3168 292.449C89.7263 292.449 90.0607 292.312 90.32 292.039C90.5861 291.76 90.7192 291.388 90.7192 290.924C90.7192 290.46 90.5861 290.091 90.32 289.818C90.0607 289.538 89.7263 289.398 89.3168 289.398C88.9074 289.398 88.5696 289.538 88.3034 289.818C88.0373 290.091 87.9042 290.46 87.9042 290.924C87.9042 291.388 88.0373 291.76 88.3034 292.039C88.5696 292.312 88.9074 292.449 89.3168 292.449ZM96.7511 288.088C97.4335 288.088 97.9829 288.293 98.3991 288.702C98.8222 289.112 99.0338 289.719 99.0338 290.524V293.677H97.4369V290.77C97.4369 290.333 97.3414 290.009 97.1503 289.798C96.9593 289.579 96.6829 289.47 96.3212 289.47C95.9186 289.47 95.5978 289.596 95.359 289.849C95.1201 290.094 95.0007 290.463 95.0007 290.954V293.677H93.4039V288.17H94.9291V288.815C95.1406 288.583 95.4033 288.405 95.7173 288.283C96.0312 288.153 96.3758 288.088 96.7511 288.088ZM100.481 286.082H102.078V293.677H100.481V286.082ZM103.56 288.17H105.157V293.677H103.56V288.17ZM104.359 287.402C104.065 287.402 103.826 287.317 103.642 287.146C103.458 286.976 103.366 286.764 103.366 286.512C103.366 286.259 103.458 286.048 103.642 285.877C103.826 285.707 104.065 285.621 104.359 285.621C104.652 285.621 104.891 285.703 105.075 285.867C105.259 286.031 105.351 286.235 105.351 286.481C105.351 286.747 105.259 286.969 105.075 287.146C104.891 287.317 104.652 287.402 104.359 287.402ZM109.986 288.088C110.669 288.088 111.218 288.293 111.634 288.702C112.057 289.112 112.269 289.719 112.269 290.524V293.677H110.672V290.77C110.672 290.333 110.577 290.009 110.385 289.798C110.194 289.579 109.918 289.47 109.556 289.47C109.154 289.47 108.833 289.596 108.594 289.849C108.355 290.094 108.236 290.463 108.236 290.954V293.677H106.639V288.17H108.164V288.815C108.376 288.583 108.638 288.405 108.952 288.283C109.266 288.153 109.611 288.088 109.986 288.088ZM119.171 290.944C119.171 290.965 119.161 291.108 119.14 291.374H114.974C115.049 291.715 115.226 291.985 115.506 292.183C115.786 292.381 116.134 292.479 116.55 292.479C116.837 292.479 117.089 292.439 117.308 292.357C117.533 292.268 117.741 292.131 117.932 291.947L118.782 292.868C118.263 293.462 117.506 293.759 116.509 293.759C115.888 293.759 115.339 293.64 114.861 293.401C114.384 293.155 114.015 292.817 113.756 292.387C113.497 291.957 113.367 291.47 113.367 290.924C113.367 290.384 113.493 289.9 113.746 289.47C114.005 289.033 114.356 288.695 114.8 288.457C115.25 288.211 115.752 288.088 116.305 288.088C116.844 288.088 117.332 288.204 117.768 288.436C118.205 288.668 118.546 289.003 118.792 289.439C119.045 289.869 119.171 290.371 119.171 290.944ZM116.315 289.296C115.953 289.296 115.65 289.398 115.404 289.603C115.158 289.808 115.008 290.088 114.954 290.442H117.666C117.612 290.094 117.461 289.818 117.216 289.613C116.97 289.402 116.67 289.296 116.315 289.296ZM124.986 293.759C124.528 293.759 124.081 293.704 123.645 293.595C123.208 293.479 122.86 293.336 122.601 293.165L123.133 292.019C123.379 292.176 123.675 292.305 124.023 292.408C124.371 292.503 124.713 292.551 125.047 292.551C125.723 292.551 126.06 292.384 126.06 292.05C126.06 291.893 125.968 291.78 125.784 291.712C125.6 291.644 125.317 291.586 124.934 291.538C124.484 291.47 124.112 291.391 123.819 291.302C123.525 291.214 123.269 291.057 123.051 290.831C122.839 290.606 122.734 290.286 122.734 289.869C122.734 289.521 122.833 289.214 123.031 288.948C123.235 288.675 123.529 288.463 123.911 288.313C124.3 288.163 124.757 288.088 125.282 288.088C125.671 288.088 126.057 288.133 126.439 288.221C126.828 288.303 127.149 288.419 127.401 288.569L126.869 289.705C126.385 289.433 125.856 289.296 125.282 289.296C124.941 289.296 124.685 289.344 124.515 289.439C124.344 289.535 124.259 289.658 124.259 289.808C124.259 289.978 124.351 290.098 124.535 290.166C124.72 290.234 125.013 290.299 125.416 290.361C125.866 290.436 126.234 290.518 126.521 290.606C126.808 290.688 127.057 290.842 127.268 291.067C127.48 291.292 127.586 291.606 127.586 292.009C127.586 292.35 127.483 292.654 127.279 292.92C127.074 293.186 126.774 293.394 126.378 293.544C125.989 293.687 125.525 293.759 124.986 293.759ZM132.123 293.411C131.966 293.527 131.771 293.616 131.539 293.677C131.314 293.732 131.075 293.759 130.823 293.759C130.168 293.759 129.659 293.592 129.298 293.257C128.943 292.923 128.765 292.432 128.765 291.783V289.521H127.916V288.293H128.765V286.952H130.362V288.293H131.734V289.521H130.362V291.763C130.362 291.995 130.42 292.176 130.536 292.305C130.659 292.428 130.83 292.49 131.048 292.49C131.301 292.49 131.516 292.421 131.693 292.285L132.123 293.411ZM138.567 288.17V293.677H137.052V293.022C136.841 293.261 136.588 293.445 136.295 293.575C136.001 293.698 135.684 293.759 135.343 293.759C134.62 293.759 134.046 293.551 133.623 293.135C133.2 292.718 132.989 292.101 132.989 291.282V288.17H134.585V291.046C134.585 291.934 134.957 292.377 135.701 292.377C136.083 292.377 136.39 292.254 136.622 292.009C136.854 291.756 136.97 291.384 136.97 290.893V288.17H138.567ZM145.656 286.082V293.677H144.131V293.042C143.735 293.52 143.162 293.759 142.411 293.759C141.893 293.759 141.422 293.643 140.999 293.411C140.582 293.179 140.255 292.848 140.016 292.418C139.777 291.988 139.658 291.49 139.658 290.924C139.658 290.357 139.777 289.859 140.016 289.429C140.255 288.999 140.582 288.668 140.999 288.436C141.422 288.204 141.893 288.088 142.411 288.088C143.114 288.088 143.663 288.31 144.059 288.754V286.082H145.656ZM142.688 292.449C143.09 292.449 143.425 292.312 143.691 292.039C143.957 291.76 144.09 291.388 144.09 290.924C144.09 290.46 143.957 290.091 143.691 289.818C143.425 289.538 143.09 289.398 142.688 289.398C142.278 289.398 141.94 289.538 141.674 289.818C141.408 290.091 141.275 290.46 141.275 290.924C141.275 291.388 141.408 291.76 141.674 292.039C141.94 292.312 142.278 292.449 142.688 292.449ZM152.529 290.944C152.529 290.965 152.518 291.108 152.498 291.374H148.332C148.407 291.715 148.584 291.985 148.864 292.183C149.144 292.381 149.492 292.479 149.908 292.479C150.195 292.479 150.447 292.439 150.666 292.357C150.891 292.268 151.099 292.131 151.29 291.947L152.14 292.868C151.621 293.462 150.863 293.759 149.867 293.759C149.246 293.759 148.697 293.64 148.219 293.401C147.741 293.155 147.373 292.817 147.114 292.387C146.854 291.957 146.725 291.47 146.725 290.924C146.725 290.384 146.851 289.9 147.103 289.47C147.363 289.033 147.714 288.695 148.158 288.457C148.608 288.211 149.11 288.088 149.662 288.088C150.201 288.088 150.689 288.204 151.126 288.436C151.563 288.668 151.904 289.003 152.15 289.439C152.402 289.869 152.529 290.371 152.529 290.944ZM149.673 289.296C149.311 289.296 149.007 289.398 148.762 289.603C148.516 289.808 148.366 290.088 148.311 290.442H151.024C150.969 290.094 150.819 289.818 150.573 289.613C150.328 289.402 150.027 289.296 149.673 289.296ZM156.939 288.088C157.621 288.088 158.171 288.293 158.587 288.702C159.01 289.112 159.222 289.719 159.222 290.524V293.677H157.625V290.77C157.625 290.333 157.529 290.009 157.338 289.798C157.147 289.579 156.871 289.47 156.509 289.47C156.106 289.47 155.786 289.596 155.547 289.849C155.308 290.094 155.188 290.463 155.188 290.954V293.677H153.592V288.17H155.117V288.815C155.328 288.583 155.591 288.405 155.905 288.283C156.219 288.153 156.564 288.088 156.939 288.088ZM164.221 293.411C164.064 293.527 163.87 293.616 163.638 293.677C163.412 293.732 163.173 293.759 162.921 293.759C162.266 293.759 161.757 293.592 161.396 293.257C161.041 292.923 160.864 292.432 160.864 291.783V289.521H160.014V288.293H160.864V286.952H162.46V288.293H163.832V289.521H162.46V291.763C162.46 291.995 162.518 292.176 162.634 292.305C162.757 292.428 162.928 292.49 163.146 292.49C163.399 292.49 163.614 292.421 163.791 292.285L164.221 293.411ZM166.97 293.759C166.513 293.759 166.066 293.704 165.629 293.595C165.192 293.479 164.844 293.336 164.585 293.165L165.117 292.019C165.363 292.176 165.66 292.305 166.008 292.408C166.356 292.503 166.697 292.551 167.032 292.551C167.707 292.551 168.045 292.384 168.045 292.05C168.045 291.893 167.953 291.78 167.769 291.712C167.584 291.644 167.301 291.586 166.919 291.538C166.469 291.47 166.097 291.391 165.803 291.302C165.51 291.214 165.254 291.057 165.036 290.831C164.824 290.606 164.718 290.286 164.718 289.869C164.718 289.521 164.817 289.214 165.015 288.948C165.22 288.675 165.513 288.463 165.895 288.313C166.284 288.163 166.742 288.088 167.267 288.088C167.656 288.088 168.042 288.133 168.424 288.221C168.813 288.303 169.133 288.419 169.386 288.569L168.854 289.705C168.369 289.433 167.84 289.296 167.267 289.296C166.926 289.296 166.67 289.344 166.499 289.439C166.329 289.535 166.243 289.658 166.243 289.808C166.243 289.978 166.336 290.098 166.52 290.166C166.704 290.234 166.997 290.299 167.4 290.361C167.85 290.436 168.219 290.518 168.506 290.606C168.792 290.688 169.041 290.842 169.253 291.067C169.464 291.292 169.57 291.606 169.57 292.009C169.57 292.35 169.468 292.654 169.263 292.92C169.058 293.186 168.758 293.394 168.362 293.544C167.973 293.687 167.509 293.759 166.97 293.759ZM170.351 290.156H173.248V291.435H170.351V290.156ZM176.254 288.293H177.667V289.521H176.295V293.677H174.698V289.521H173.849V288.293H174.698V288.047C174.698 287.419 174.883 286.921 175.251 286.553C175.627 286.184 176.152 286 176.828 286C177.066 286 177.292 286.027 177.503 286.082C177.722 286.13 177.902 286.201 178.046 286.297L177.626 287.454C177.442 287.324 177.227 287.259 176.981 287.259C176.497 287.259 176.254 287.525 176.254 288.057V288.293ZM181.013 293.759C180.433 293.759 179.911 293.64 179.447 293.401C178.99 293.155 178.631 292.817 178.372 292.387C178.113 291.957 177.983 291.47 177.983 290.924C177.983 290.378 178.113 289.89 178.372 289.46C178.631 289.03 178.99 288.695 179.447 288.457C179.911 288.211 180.433 288.088 181.013 288.088C181.593 288.088 182.112 288.211 182.569 288.457C183.026 288.695 183.384 289.03 183.644 289.46C183.903 289.89 184.033 290.378 184.033 290.924C184.033 291.47 183.903 291.957 183.644 292.387C183.384 292.817 183.026 293.155 182.569 293.401C182.112 293.64 181.593 293.759 181.013 293.759ZM181.013 292.449C181.422 292.449 181.757 292.312 182.016 292.039C182.282 291.76 182.415 291.388 182.415 290.924C182.415 290.46 182.282 290.091 182.016 289.818C181.757 289.538 181.422 289.398 181.013 289.398C180.604 289.398 180.266 289.538 180 289.818C179.733 290.091 179.6 290.46 179.6 290.924C179.6 291.388 179.733 291.76 180 292.039C180.266 292.312 180.604 292.449 181.013 292.449ZM187.761 293.759C187.175 293.759 186.646 293.64 186.175 293.401C185.711 293.155 185.346 292.817 185.08 292.387C184.82 291.957 184.691 291.47 184.691 290.924C184.691 290.378 184.82 289.89 185.08 289.46C185.346 289.03 185.711 288.695 186.175 288.457C186.646 288.211 187.175 288.088 187.761 288.088C188.341 288.088 188.846 288.211 189.276 288.457C189.713 288.695 190.03 289.04 190.228 289.491L188.99 290.156C188.703 289.651 188.29 289.398 187.751 289.398C187.335 289.398 186.99 289.535 186.717 289.808C186.444 290.081 186.308 290.453 186.308 290.924C186.308 291.394 186.444 291.766 186.717 292.039C186.99 292.312 187.335 292.449 187.751 292.449C188.297 292.449 188.71 292.196 188.99 291.691L190.228 292.367C190.03 292.804 189.713 293.145 189.276 293.391C188.846 293.636 188.341 293.759 187.761 293.759ZM196.696 288.17V293.677H195.181V293.022C194.969 293.261 194.717 293.445 194.423 293.575C194.13 293.698 193.813 293.759 193.471 293.759C192.748 293.759 192.175 293.551 191.752 293.135C191.329 292.718 191.117 292.101 191.117 291.282V288.17H192.714V291.046C192.714 291.934 193.086 292.377 193.83 292.377C194.212 292.377 194.519 292.254 194.751 292.009C194.983 291.756 195.099 291.384 195.099 290.893V288.17H196.696ZM200.028 293.759C199.571 293.759 199.124 293.704 198.687 293.595C198.25 293.479 197.902 293.336 197.643 293.165L198.175 292.019C198.421 292.176 198.718 292.305 199.066 292.408C199.414 292.503 199.755 292.551 200.089 292.551C200.765 292.551 201.103 292.384 201.103 292.05C201.103 291.893 201.011 291.78 200.826 291.712C200.642 291.644 200.359 291.586 199.977 291.538C199.526 291.47 199.154 291.391 198.861 291.302C198.568 291.214 198.312 291.057 198.093 290.831C197.882 290.606 197.776 290.286 197.776 289.869C197.776 289.521 197.875 289.214 198.073 288.948C198.278 288.675 198.571 288.463 198.953 288.313C199.342 288.163 199.799 288.088 200.325 288.088C200.714 288.088 201.099 288.133 201.481 288.221C201.87 288.303 202.191 288.419 202.444 288.569L201.911 289.705C201.427 289.433 200.898 289.296 200.325 289.296C199.984 289.296 199.728 289.344 199.557 289.439C199.386 289.535 199.301 289.658 199.301 289.808C199.301 289.978 199.393 290.098 199.578 290.166C199.762 290.234 200.055 290.299 200.458 290.361C200.908 290.436 201.277 290.518 201.563 290.606C201.85 290.688 202.099 290.842 202.311 291.067C202.522 291.292 202.628 291.606 202.628 292.009C202.628 292.35 202.526 292.654 202.321 292.92C202.116 293.186 201.816 293.394 201.42 293.544C201.031 293.687 200.567 293.759 200.028 293.759ZM209.008 290.944C209.008 290.965 208.997 291.108 208.977 291.374H204.811C204.886 291.715 205.063 291.985 205.343 292.183C205.623 292.381 205.971 292.479 206.387 292.479C206.674 292.479 206.926 292.439 207.145 292.357C207.37 292.268 207.578 292.131 207.769 291.947L208.619 292.868C208.1 293.462 207.343 293.759 206.346 293.759C205.725 293.759 205.176 293.64 204.698 293.401C204.221 293.155 203.852 292.817 203.593 292.387C203.333 291.957 203.204 291.47 203.204 290.924C203.204 290.384 203.33 289.9 203.582 289.47C203.842 289.033 204.193 288.695 204.637 288.457C205.087 288.211 205.589 288.088 206.142 288.088C206.681 288.088 207.169 288.204 207.605 288.436C208.042 288.668 208.383 289.003 208.629 289.439C208.881 289.869 209.008 290.371 209.008 290.944ZM206.152 289.296C205.79 289.296 205.486 289.398 205.241 289.603C204.995 289.808 204.845 290.088 204.79 290.442H207.503C207.448 290.094 207.298 289.818 207.053 289.613C206.807 289.402 206.507 289.296 206.152 289.296ZM215.68 286.082V293.677H214.155V293.042C213.759 293.52 213.186 293.759 212.435 293.759C211.917 293.759 211.446 293.643 211.023 293.411C210.606 293.179 210.279 292.848 210.04 292.418C209.801 291.988 209.682 291.49 209.682 290.924C209.682 290.357 209.801 289.859 210.04 289.429C210.279 288.999 210.606 288.668 211.023 288.436C211.446 288.204 211.917 288.088 212.435 288.088C213.138 288.088 213.688 288.31 214.083 288.754V286.082H215.68ZM212.712 292.449C213.114 292.449 213.449 292.312 213.715 292.039C213.981 291.76 214.114 291.388 214.114 290.924C214.114 290.46 213.981 290.091 213.715 289.818C213.449 289.538 213.114 289.398 212.712 289.398C212.302 289.398 211.964 289.538 211.698 289.818C211.432 290.091 211.299 290.46 211.299 290.924C211.299 291.388 211.432 291.76 211.698 292.039C211.964 292.312 212.302 292.449 212.712 292.449ZM223.404 288.088C224.087 288.088 224.636 288.293 225.052 288.702C225.475 289.112 225.687 289.719 225.687 290.524V293.677H224.09V290.77C224.09 290.333 223.995 290.009 223.804 289.798C223.612 289.579 223.336 289.47 222.974 289.47C222.572 289.47 222.251 289.596 222.012 289.849C221.773 290.094 221.654 290.463 221.654 290.954V293.677H220.057V286.082H221.654V288.743C221.866 288.532 222.121 288.371 222.422 288.262C222.722 288.146 223.049 288.088 223.404 288.088ZM229.356 288.088C230.209 288.088 230.864 288.293 231.321 288.702C231.778 289.105 232.007 289.716 232.007 290.535V293.677H230.512V292.991C230.212 293.503 229.653 293.759 228.834 293.759C228.411 293.759 228.042 293.687 227.728 293.544C227.421 293.401 227.186 293.203 227.022 292.95C226.858 292.698 226.776 292.411 226.776 292.091C226.776 291.579 226.967 291.176 227.349 290.883C227.738 290.589 228.336 290.442 229.141 290.442H230.41C230.41 290.094 230.304 289.828 230.093 289.644C229.881 289.453 229.564 289.357 229.141 289.357C228.847 289.357 228.557 289.405 228.271 289.501C227.991 289.589 227.752 289.712 227.554 289.869L226.981 288.754C227.281 288.542 227.639 288.378 228.056 288.262C228.479 288.146 228.912 288.088 229.356 288.088ZM229.233 292.684C229.506 292.684 229.748 292.623 229.96 292.5C230.171 292.37 230.321 292.183 230.41 291.937V291.374H229.315C228.66 291.374 228.332 291.589 228.332 292.019C228.332 292.224 228.411 292.387 228.568 292.51C228.731 292.626 228.953 292.684 229.233 292.684ZM236.174 293.759C235.587 293.759 235.058 293.64 234.587 293.401C234.123 293.155 233.758 292.817 233.492 292.387C233.232 291.957 233.103 291.47 233.103 290.924C233.103 290.378 233.232 289.89 233.492 289.46C233.758 289.03 234.123 288.695 234.587 288.457C235.058 288.211 235.587 288.088 236.174 288.088C236.754 288.088 237.259 288.211 237.689 288.457C238.125 288.695 238.443 289.04 238.64 289.491L237.402 290.156C237.115 289.651 236.702 289.398 236.163 289.398C235.747 289.398 235.402 289.535 235.129 289.808C234.856 290.081 234.72 290.453 234.72 290.924C234.72 291.394 234.856 291.766 235.129 292.039C235.402 292.312 235.747 292.449 236.163 292.449C236.709 292.449 237.122 292.196 237.402 291.691L238.64 292.367C238.443 292.804 238.125 293.145 237.689 293.391C237.259 293.636 236.754 293.759 236.174 293.759ZM241.884 291.517L241.117 292.275V293.677H239.52V286.082H241.117V290.381L243.451 288.17H245.355L243.062 290.504L245.559 293.677H243.625L241.884 291.517ZM248.399 288.088C249.252 288.088 249.907 288.293 250.364 288.702C250.821 289.105 251.05 289.716 251.05 290.535V293.677H249.555V292.991C249.255 293.503 248.696 293.759 247.877 293.759C247.454 293.759 247.085 293.687 246.771 293.544C246.464 293.401 246.229 293.203 246.065 292.95C245.901 292.698 245.819 292.411 245.819 292.091C245.819 291.579 246.01 291.176 246.392 290.883C246.781 290.589 247.379 290.442 248.184 290.442H249.453C249.453 290.094 249.347 289.828 249.136 289.644C248.924 289.453 248.607 289.357 248.184 289.357C247.89 289.357 247.6 289.405 247.314 289.501C247.034 289.589 246.795 289.712 246.597 289.869L246.024 288.754C246.324 288.542 246.682 288.378 247.099 288.262C247.522 288.146 247.955 288.088 248.399 288.088ZM248.276 292.684C248.549 292.684 248.791 292.623 249.003 292.5C249.214 292.37 249.364 292.183 249.453 291.937V291.374H248.358C247.703 291.374 247.375 291.589 247.375 292.019C247.375 292.224 247.454 292.387 247.611 292.51C247.774 292.626 247.996 292.684 248.276 292.684ZM256.047 293.411C255.89 293.527 255.696 293.616 255.464 293.677C255.238 293.732 255 293.759 254.747 293.759C254.092 293.759 253.584 293.592 253.222 293.257C252.867 292.923 252.69 292.432 252.69 291.783V289.521H251.84V288.293H252.69V286.952H254.286V288.293H255.658V289.521H254.286V291.763C254.286 291.995 254.344 292.176 254.46 292.305C254.583 292.428 254.754 292.49 254.972 292.49C255.225 292.49 255.44 292.421 255.617 292.285L256.047 293.411ZM260.291 288.088C260.973 288.088 261.522 288.293 261.939 288.702C262.362 289.112 262.573 289.719 262.573 290.524V293.677H260.977V290.77C260.977 290.333 260.881 290.009 260.69 289.798C260.499 289.579 260.222 289.47 259.861 289.47C259.458 289.47 259.137 289.596 258.899 289.849C258.66 290.094 258.54 290.463 258.54 290.954V293.677H256.943V286.082H258.54V288.743C258.752 288.532 259.008 288.371 259.308 288.262C259.608 288.146 259.936 288.088 260.291 288.088ZM266.701 293.759C266.121 293.759 265.599 293.64 265.135 293.401C264.678 293.155 264.32 292.817 264.06 292.387C263.801 291.957 263.671 291.47 263.671 290.924C263.671 290.378 263.801 289.89 264.06 289.46C264.32 289.03 264.678 288.695 265.135 288.457C265.599 288.211 266.121 288.088 266.701 288.088C267.281 288.088 267.8 288.211 268.257 288.457C268.714 288.695 269.073 289.03 269.332 289.46C269.591 289.89 269.721 290.378 269.721 290.924C269.721 291.47 269.591 291.957 269.332 292.387C269.073 292.817 268.714 293.155 268.257 293.401C267.8 293.64 267.281 293.759 266.701 293.759ZM266.701 292.449C267.111 292.449 267.445 292.312 267.704 292.039C267.971 291.76 268.104 291.388 268.104 290.924C268.104 290.46 267.971 290.091 267.704 289.818C267.445 289.538 267.111 289.398 266.701 289.398C266.292 289.398 265.954 289.538 265.688 289.818C265.422 290.091 265.289 290.46 265.289 290.924C265.289 291.388 265.422 291.76 265.688 292.039C265.954 292.312 266.292 292.449 266.701 292.449ZM274.136 288.088C274.818 288.088 275.367 288.293 275.784 288.702C276.207 289.112 276.418 289.719 276.418 290.524V293.677H274.821V290.77C274.821 290.333 274.726 290.009 274.535 289.798C274.344 289.579 274.067 289.47 273.706 289.47C273.303 289.47 272.982 289.596 272.743 289.849C272.505 290.094 272.385 290.463 272.385 290.954V293.677H270.788V288.17H272.314V288.815C272.525 288.583 272.788 288.405 273.102 288.283C273.416 288.153 273.76 288.088 274.136 288.088Z" fill="#CBFBCB"/>
<path d="M2.54341 8.11268C2.08732 8.11268 1.64463 8.05634 1.21537 7.94366C0.786098 7.83098 0.437317 7.68073 0.169024 7.49293L0.692195 6.3178C0.94439 6.48415 1.23683 6.61829 1.56951 6.72024C1.9022 6.8222 2.22951 6.87317 2.55146 6.87317C3.16317 6.87317 3.46902 6.72024 3.46902 6.41439C3.46902 6.25341 3.38049 6.13537 3.20341 6.06024C3.03171 5.97976 2.75268 5.89659 2.36634 5.81073C1.94244 5.71951 1.58829 5.62293 1.3039 5.52098C1.01951 5.41366 0.775366 5.24463 0.571463 5.0139C0.367561 4.78317 0.26561 4.47195 0.26561 4.08024C0.26561 3.73683 0.359512 3.42829 0.547317 3.15463C0.735122 2.87561 1.01415 2.65561 1.38439 2.49463C1.76 2.33366 2.21878 2.25317 2.76073 2.25317C3.13098 2.25317 3.49585 2.2961 3.85537 2.38195C4.21488 2.46244 4.53146 2.58317 4.80512 2.74415L4.31415 3.92732C3.77756 3.63756 3.25707 3.49268 2.75268 3.49268C2.4361 3.49268 2.20537 3.54098 2.06049 3.63756C1.91561 3.72878 1.84317 3.84951 1.84317 3.99976C1.84317 4.15 1.92902 4.26268 2.10073 4.3378C2.27244 4.41293 2.54878 4.49073 2.92976 4.57122C3.35902 4.66244 3.71317 4.76171 3.9922 4.86902C4.27659 4.97098 4.52073 5.13732 4.72463 5.36805C4.9339 5.59341 5.03854 5.90195 5.03854 6.29366C5.03854 6.63171 4.94463 6.93756 4.75683 7.21122C4.56902 7.48488 4.28732 7.70488 3.91171 7.87122C3.5361 8.0322 3.08 8.11268 2.54341 8.11268ZM12.0205 2.36585V8H10.4269V5.80268H8.25371V8H6.66005V2.36585H8.25371V4.48268H10.4269V2.36585H12.0205ZM16.493 6.50293H15.6237V8H14.03V2.36585H16.6056C17.1154 2.36585 17.5581 2.45171 17.9337 2.62341C18.3093 2.78976 18.5991 3.03122 18.803 3.3478C19.0069 3.65902 19.1088 4.02659 19.1088 4.45049C19.1088 4.85829 19.0122 5.21512 18.8191 5.52098C18.6313 5.82146 18.3603 6.05756 18.0061 6.22927L19.2215 8H17.5152L16.493 6.50293ZM17.4991 4.45049C17.4991 4.18756 17.4159 3.98366 17.2495 3.83878C17.0832 3.6939 16.8364 3.62146 16.5091 3.62146H15.6237V5.27146H16.5091C16.8364 5.27146 17.0832 5.20171 17.2495 5.0622C17.4159 4.91732 17.4991 4.71341 17.4991 4.45049ZM20.8734 2.36585H22.467V8H20.8734V2.36585ZM29.6939 8.11268C29.2378 8.11268 28.7951 8.05634 28.3659 7.94366C27.9366 7.83098 27.5878 7.68073 27.3195 7.49293L27.8427 6.3178C28.0949 6.48415 28.3873 6.61829 28.72 6.72024C29.0527 6.8222 29.38 6.87317 29.7019 6.87317C30.3137 6.87317 30.6195 6.72024 30.6195 6.41439C30.6195 6.25341 30.531 6.13537 30.3539 6.06024C30.1822 5.97976 29.9032 5.89659 29.5168 5.81073C29.0929 5.71951 28.7388 5.62293 28.4544 5.52098C28.17 5.41366 27.9259 5.24463 27.7219 5.0139C27.518 4.78317 27.4161 4.47195 27.4161 4.08024C27.4161 3.73683 27.51 3.42829 27.6978 3.15463C27.8856 2.87561 28.1646 2.65561 28.5349 2.49463C28.9105 2.33366 29.3693 2.25317 29.9112 2.25317C30.2815 2.25317 30.6463 2.2961 31.0059 2.38195C31.3654 2.46244 31.6819 2.58317 31.9556 2.74415L31.4646 3.92732C30.928 3.63756 30.4076 3.49268 29.9032 3.49268C29.5866 3.49268 29.3559 3.54098 29.211 3.63756C29.0661 3.72878 28.9937 3.84951 28.9937 3.99976C28.9937 4.15 29.0795 4.26268 29.2512 4.3378C29.4229 4.41293 29.6993 4.49073 30.0802 4.57122C30.5095 4.66244 30.8637 4.76171 31.1427 4.86902C31.4271 4.97098 31.6712 5.13732 31.8751 5.36805C32.0844 5.59341 32.189 5.90195 32.189 6.29366C32.189 6.63171 32.0951 6.93756 31.9073 7.21122C31.7195 7.48488 31.4378 7.70488 31.0622 7.87122C30.6866 8.0322 30.2305 8.11268 29.6939 8.11268ZM39.171 2.36585V8H37.5774V5.80268H35.4042V8H33.8105V2.36585H35.4042V4.48268H37.5774V2.36585H39.171ZM44.9554 6.90537H42.573L42.1303 8H40.5044L42.9915 2.36585H44.561L47.0561 8H45.3981L44.9554 6.90537ZM44.4886 5.73024L43.7642 3.92732L43.0398 5.73024H44.4886ZM53.7538 2.36585V8H52.4418L49.9548 4.9978V8H48.3933V2.36585H49.7052L52.1923 5.36805V2.36585H53.7538ZM57.9364 5.95561L57.3408 6.59146V8H55.7633V2.36585H57.3408V4.70805L59.5221 2.36585H61.2767L58.9747 4.86098L61.3974 8H59.5462L57.9364 5.95561ZM66.2086 6.90537H63.8261L63.3835 8H61.7576L64.2447 2.36585H65.8142L68.3093 8H66.6513L66.2086 6.90537ZM65.7417 5.73024L65.0174 3.92732L64.293 5.73024H65.7417ZM72.1094 6.50293H71.2401V8H69.6465V2.36585H72.2221C72.7318 2.36585 73.1745 2.45171 73.5501 2.62341C73.9257 2.78976 74.2155 3.03122 74.4194 3.3478C74.6233 3.65902 74.7253 4.02659 74.7253 4.45049C74.7253 4.85829 74.6287 5.21512 74.4355 5.52098C74.2477 5.82146 73.9767 6.05756 73.6226 6.22927L74.8379 8H73.1316L72.1094 6.50293ZM73.1155 4.45049C73.1155 4.18756 73.0323 3.98366 72.866 3.83878C72.6996 3.6939 72.4528 3.62146 72.1255 3.62146H71.2401V5.27146H72.1255C72.4528 5.27146 72.6996 5.20171 72.866 5.0622C73.0323 4.91732 73.1155 4.71341 73.1155 4.45049ZM80.2647 6.90537H77.8823L77.4396 8H75.8137L78.3008 2.36585H79.8703L82.3654 8H80.7074L80.2647 6.90537ZM79.7979 5.73024L79.0735 3.92732L78.3491 5.73024H79.7979ZM86.433 8.11268C85.8428 8.11268 85.3116 7.98927 84.8394 7.74244C84.3725 7.49024 84.005 7.14146 83.7367 6.6961C83.4684 6.25073 83.3342 5.74634 83.3342 5.18293C83.3342 4.61951 83.4684 4.11512 83.7367 3.66976C84.005 3.22439 84.3725 2.87829 84.8394 2.63146C85.3116 2.37927 85.8428 2.25317 86.433 2.25317C86.9481 2.25317 87.4123 2.34439 87.8255 2.52683C88.2386 2.70927 88.582 2.97219 88.8557 3.31561L87.8416 4.23317C87.4767 3.79317 87.034 3.57317 86.5135 3.57317C86.2077 3.57317 85.934 3.64024 85.6925 3.77439C85.4564 3.90854 85.2713 4.09902 85.1372 4.34585C85.0084 4.58732 84.944 4.86634 84.944 5.18293C84.944 5.49951 85.0084 5.78122 85.1372 6.02805C85.2713 6.26951 85.4564 6.45732 85.6925 6.59146C85.934 6.72561 86.2077 6.79268 86.5135 6.79268C87.034 6.79268 87.4767 6.57268 87.8416 6.13268L88.8557 7.05024C88.582 7.39366 88.2386 7.65659 87.8255 7.83902C87.4123 8.02146 86.9481 8.11268 86.433 8.11268ZM95.8121 2.36585V8H94.2185V5.80268H92.0453V8H90.4516V2.36585H92.0453V4.48268H94.2185V2.36585H95.8121ZM101.596 6.90537H99.214L98.7714 8H97.1455L99.6326 2.36585H101.202L103.697 8H102.039L101.596 6.90537ZM101.13 5.73024L100.405 3.92732L99.6809 5.73024H101.13ZM107.497 6.50293H106.628V8H105.034V2.36585H107.61C108.12 2.36585 108.562 2.45171 108.938 2.62341C109.314 2.78976 109.603 3.03122 109.807 3.3478C110.011 3.65902 110.113 4.02659 110.113 4.45049C110.113 4.85829 110.017 5.21512 109.823 5.52098C109.636 5.82146 109.365 6.05756 109.01 6.22927L110.226 8H108.52L107.497 6.50293ZM108.503 4.45049C108.503 4.18756 108.42 3.98366 108.254 3.83878C108.088 3.6939 107.841 3.62146 107.513 3.62146H106.628V5.27146H107.513C107.841 5.27146 108.088 5.20171 108.254 5.0622C108.42 4.91732 108.503 4.71341 108.503 4.45049ZM114.817 5.97976V8H113.224V5.95561L111.075 2.36585H112.757L114.093 4.60341L115.429 2.36585H116.974L114.817 5.97976ZM121.686 6.90537H119.304L118.861 8H117.235L119.722 2.36585H121.292L123.787 8H122.129L121.686 6.90537ZM121.22 5.73024L120.495 3.92732L119.771 5.73024H121.22ZM129.551 3.62951H127.821V2.36585H132.867V3.62951H131.145V8H129.551V3.62951ZM138.87 6.76854V8H134.346V2.36585H138.765V3.59732H135.924V4.54707H138.427V5.73829H135.924V6.76854H138.87ZM143.441 8.11268C142.85 8.11268 142.319 7.98927 141.847 7.74244C141.38 7.49024 141.013 7.14146 140.744 6.6961C140.476 6.25073 140.342 5.74634 140.342 5.18293C140.342 4.61951 140.476 4.11512 140.744 3.66976C141.013 3.22439 141.38 2.87829 141.847 2.63146C142.319 2.37927 142.85 2.25317 143.441 2.25317C143.956 2.25317 144.42 2.34439 144.833 2.52683C145.246 2.70927 145.59 2.97219 145.863 3.31561L144.849 4.23317C144.484 3.79317 144.042 3.57317 143.521 3.57317C143.215 3.57317 142.942 3.64024 142.7 3.77439C142.464 3.90854 142.279 4.09902 142.145 4.34585C142.016 4.58732 141.952 4.86634 141.952 5.18293C141.952 5.49951 142.016 5.78122 142.145 6.02805C142.279 6.26951 142.464 6.45732 142.7 6.59146C142.942 6.72561 143.215 6.79268 143.521 6.79268C144.042 6.79268 144.484 6.57268 144.849 6.13268L145.863 7.05024C145.59 7.39366 145.246 7.65659 144.833 7.83902C144.42 8.02146 143.956 8.11268 143.441 8.11268ZM152.82 2.36585V8H151.226V5.80268H149.053V8H147.459V2.36585H149.053V4.48268H151.226V2.36585H152.82ZM160.19 2.36585V8H158.878L156.391 4.9978V8H154.829V2.36585H156.141L158.628 5.36805V2.36585H160.19ZM162.199 2.36585H163.793V8H162.199V2.36585ZM168.621 8.11268C168.031 8.11268 167.5 7.98927 167.027 7.74244C166.561 7.49024 166.193 7.14146 165.925 6.6961C165.656 6.25073 165.522 5.74634 165.522 5.18293C165.522 4.61951 165.656 4.11512 165.925 3.66976C166.193 3.22439 166.561 2.87829 167.027 2.63146C167.5 2.37927 168.031 2.25317 168.621 2.25317C169.136 2.25317 169.6 2.34439 170.014 2.52683C170.427 2.70927 170.77 2.97219 171.044 3.31561L170.03 4.23317C169.665 3.79317 169.222 3.57317 168.702 3.57317C168.396 3.57317 168.122 3.64024 167.881 3.77439C167.645 3.90854 167.459 4.09902 167.325 4.34585C167.196 4.58732 167.132 4.86634 167.132 5.18293C167.132 5.49951 167.196 5.78122 167.325 6.02805C167.459 6.26951 167.645 6.45732 167.881 6.59146C168.122 6.72561 168.396 6.79268 168.702 6.79268C169.222 6.79268 169.665 6.57268 170.03 6.13268L171.044 7.05024C170.77 7.39366 170.427 7.65659 170.014 7.83902C169.6 8.02146 169.136 8.11268 168.621 8.11268ZM176.32 6.90537H173.938L173.495 8H171.869L174.356 2.36585H175.926L178.421 8H176.763L176.32 6.90537ZM175.853 5.73024L175.129 3.92732L174.405 5.73024H175.853ZM179.758 2.36585H181.352V6.73634H184.04V8H179.758V2.36585ZM191.593 8.11268C191.003 8.11268 190.471 7.98927 189.999 7.74244C189.532 7.49024 189.165 7.14146 188.897 6.6961C188.628 6.25073 188.494 5.74634 188.494 5.18293C188.494 4.61951 188.628 4.11512 188.897 3.66976C189.165 3.22439 189.532 2.87829 189.999 2.63146C190.471 2.37927 191.003 2.25317 191.593 2.25317C192.108 2.25317 192.572 2.34439 192.985 2.52683C193.398 2.70927 193.742 2.97219 194.016 3.31561L193.001 4.23317C192.637 3.79317 192.194 3.57317 191.673 3.57317C191.367 3.57317 191.094 3.64024 190.852 3.77439C190.616 3.90854 190.431 4.09902 190.297 4.34585C190.168 4.58732 190.104 4.86634 190.104 5.18293C190.104 5.49951 190.168 5.78122 190.297 6.02805C190.431 6.26951 190.616 6.45732 190.852 6.59146C191.094 6.72561 191.367 6.79268 191.673 6.79268C192.194 6.79268 192.637 6.57268 193.001 6.13268L194.016 7.05024C193.742 7.39366 193.398 7.65659 192.985 7.83902C192.572 8.02146 192.108 8.11268 191.593 8.11268ZM199.292 6.90537H196.91L196.467 8H194.841L197.328 2.36585H198.898L201.393 8H199.735L199.292 6.90537ZM198.825 5.73024L198.101 3.92732L197.376 5.73024H198.825ZM207.817 8L207.801 5.0139L206.352 7.44463H205.644L204.203 5.09439V8H202.73V2.36585H204.042L206.022 5.61756L207.954 2.36585H209.266L209.282 8H207.817ZM213.87 2.36585C214.38 2.36585 214.823 2.45171 215.198 2.62341C215.574 2.78976 215.864 3.03122 216.068 3.3478C216.271 3.65902 216.373 4.02659 216.373 4.45049C216.373 4.87439 216.271 5.24195 216.068 5.55317C215.864 5.86439 215.574 6.10585 215.198 6.27756C214.823 6.4439 214.38 6.52707 213.87 6.52707H212.888V8H211.295V2.36585H213.87ZM213.774 5.27146C214.101 5.27146 214.348 5.20171 214.514 5.0622C214.68 4.91732 214.764 4.71341 214.764 4.45049C214.764 4.18756 214.68 3.98366 214.514 3.83878C214.348 3.6939 214.101 3.62146 213.774 3.62146H212.888V5.27146H213.774ZM220.581 8.11268C219.743 8.11268 219.092 7.88463 218.625 7.42854C218.163 6.97244 217.932 6.32585 217.932 5.48878V2.36585H219.526V5.44049C219.526 6.34195 219.883 6.79268 220.597 6.79268C221.305 6.79268 221.659 6.34195 221.659 5.44049V2.36585H223.229V5.48878C223.229 6.32585 222.995 6.97244 222.528 7.42854C222.067 7.88463 221.418 8.11268 220.581 8.11268ZM227.174 8.11268C226.717 8.11268 226.275 8.05634 225.846 7.94366C225.416 7.83098 225.067 7.68073 224.799 7.49293L225.322 6.3178C225.575 6.48415 225.867 6.61829 226.2 6.72024C226.532 6.8222 226.86 6.87317 227.182 6.87317C227.793 6.87317 228.099 6.72024 228.099 6.41439C228.099 6.25341 228.011 6.13537 227.834 6.06024C227.662 5.97976 227.383 5.89659 226.996 5.81073C226.573 5.71951 226.218 5.62293 225.934 5.52098C225.65 5.41366 225.406 5.24463 225.202 5.0139C224.998 4.78317 224.896 4.47195 224.896 4.08024C224.896 3.73683 224.99 3.42829 225.177 3.15463C225.365 2.87561 225.644 2.65561 226.015 2.49463C226.39 2.33366 226.849 2.25317 227.391 2.25317C227.761 2.25317 228.126 2.2961 228.486 2.38195C228.845 2.46244 229.162 2.58317 229.435 2.74415L228.944 3.92732C228.408 3.63756 227.887 3.49268 227.383 3.49268C227.066 3.49268 226.836 3.54098 226.691 3.63756C226.546 3.72878 226.473 3.84951 226.473 3.99976C226.473 4.15 226.559 4.26268 226.731 4.3378C226.903 4.41293 227.179 4.49073 227.56 4.57122C227.989 4.66244 228.343 4.76171 228.622 4.86902C228.907 4.97098 229.151 5.13732 229.355 5.36805C229.564 5.59341 229.669 5.90195 229.669 6.29366C229.669 6.63171 229.575 6.93756 229.387 7.21122C229.199 7.48488 228.917 7.70488 228.542 7.87122C228.166 8.0322 227.71 8.11268 227.174 8.11268Z" fill="#C6F4C6"/>
<path d="M286.806 30.5746H281.327V37.6342H271.159V30.5746H251.667V23.7785L268.209 0.756102H279.009L263.994 22.3034H271.475V16.0342H281.327V22.3034H286.806V30.5746ZM301.385 38.1083C299.699 38.1083 298.277 37.5464 297.118 36.4224C295.959 35.2985 295.379 33.8761 295.379 32.1551C295.379 30.399 295.941 28.9766 297.065 27.8878C298.224 26.799 299.664 26.2546 301.385 26.2546C303.141 26.2546 304.581 26.799 305.705 27.8878C306.829 28.9766 307.391 30.399 307.391 32.1551C307.391 33.8761 306.811 35.2985 305.652 36.4224C304.528 37.5464 303.106 38.1083 301.385 38.1083ZM332.022 38.3717C328.861 38.3717 326.051 37.6166 323.592 36.1064C321.134 34.5961 319.202 32.401 317.797 29.521C316.427 26.6059 315.743 23.1639 315.743 19.1951C315.743 15.2263 316.427 11.802 317.797 8.92196C319.202 6.00684 321.134 3.79415 323.592 2.28391C326.051 0.773664 328.861 0.0185408 332.022 0.0185408C335.147 0.0185408 337.94 0.773664 340.398 2.28391C342.857 3.79415 344.771 6.00684 346.141 8.92196C347.546 11.802 348.248 15.2263 348.248 19.1951C348.248 23.1639 347.546 26.6059 346.141 29.521C344.771 32.401 342.857 34.5961 340.398 36.1064C337.94 37.6166 335.147 38.3717 332.022 38.3717ZM332.022 29.8371C333.778 29.8371 335.165 28.9942 336.184 27.3083C337.237 25.5873 337.764 22.8829 337.764 19.1951C337.764 15.5073 337.237 12.8205 336.184 11.1346C335.165 9.41366 333.778 8.55318 332.022 8.55318C330.23 8.55318 328.808 9.41366 327.754 11.1346C326.736 12.8205 326.227 15.5073 326.227 19.1951C326.227 22.8829 326.736 25.5873 327.754 27.3083C328.808 28.9942 330.23 29.8371 332.022 29.8371Z" fill="#C6F4C6"/>
<path d="M22.08 16.2195V37.2195H16.14V29.0295H8.04V37.2195H2.1V16.2195H8.04V24.1095H16.14V16.2195H22.08ZM43.6399 33.1395H34.7599L33.1099 37.2195H27.0499L36.3199 16.2195H42.1699L51.4699 37.2195H45.2899L43.6399 33.1395ZM41.8999 28.7595L39.1999 22.0395L36.4999 28.7595H41.8999ZM66.6309 37.6395C64.4309 37.6395 62.4509 37.1795 60.6909 36.2595C58.9509 35.3195 57.5809 34.0195 56.5809 32.3595C55.5809 30.6995 55.0809 28.8195 55.0809 26.7195C55.0809 24.6195 55.5809 22.7395 56.5809 21.0795C57.5809 19.4195 58.9509 18.1295 60.6909 17.2095C62.4509 16.2695 64.4309 15.7995 66.6309 15.7995C68.5509 15.7995 70.2809 16.1395 71.8209 16.8195C73.3609 17.4995 74.6409 18.4795 75.6609 19.7595L71.8809 23.1795C70.5209 21.5395 68.8709 20.7195 66.9309 20.7195C65.7909 20.7195 64.7709 20.9695 63.8709 21.4695C62.9909 21.9695 62.3009 22.6795 61.8009 23.5995C61.3209 24.4995 61.0809 25.5395 61.0809 26.7195C61.0809 27.8995 61.3209 28.9495 61.8009 29.8695C62.3009 30.7695 62.9909 31.4695 63.8709 31.9695C64.7709 32.4695 65.7909 32.7195 66.9309 32.7195C68.8709 32.7195 70.5209 31.8995 71.8809 30.2595L75.6609 33.6795C74.6409 34.9595 73.3609 35.9395 71.8209 36.6195C70.2809 37.2995 68.5509 37.6395 66.6309 37.6395ZM89.7094 29.5995L87.4894 31.9695V37.2195H81.6094V16.2195H87.4894V24.9495L95.6194 16.2195H102.159L93.5794 25.5195L102.609 37.2195H95.7094L89.7094 29.5995ZM120.542 33.1395H111.662L110.012 37.2195H103.952L113.222 16.2195H119.072L128.372 37.2195H122.192L120.542 33.1395ZM118.802 28.7595L116.102 22.0395L113.402 28.7595H118.802ZM136.771 20.9295H130.321V16.2195H149.131V20.9295H142.711V37.2195H136.771V20.9295ZM174.624 16.2195V37.2195H168.684V29.0295H160.584V37.2195H154.644V16.2195H160.584V24.1095H168.684V16.2195H174.624ZM192.704 37.6395C190.484 37.6395 188.484 37.1695 186.704 36.2295C184.944 35.2895 183.554 33.9895 182.534 32.3295C181.534 30.6695 181.034 28.7995 181.034 26.7195C181.034 24.6395 181.534 22.7695 182.534 21.1095C183.554 19.4495 184.944 18.1495 186.704 17.2095C188.484 16.2695 190.484 15.7995 192.704 15.7995C194.924 15.7995 196.914 16.2695 198.674 17.2095C200.454 18.1495 201.844 19.4495 202.844 21.1095C203.864 22.7695 204.374 24.6395 204.374 26.7195C204.374 28.7995 203.864 30.6695 202.844 32.3295C201.844 33.9895 200.454 35.2895 198.674 36.2295C196.914 37.1695 194.924 37.6395 192.704 37.6395ZM192.704 32.7195C193.764 32.7195 194.724 32.4695 195.584 31.9695C196.444 31.4695 197.124 30.7695 197.624 29.8695C198.124 28.9495 198.374 27.8995 198.374 26.7195C198.374 25.5395 198.124 24.4995 197.624 23.5995C197.124 22.6795 196.444 21.9695 195.584 21.4695C194.724 20.9695 193.764 20.7195 192.704 20.7195C191.644 20.7195 190.684 20.9695 189.824 21.4695C188.964 21.9695 188.284 22.6795 187.784 23.5995C187.284 24.4995 187.034 25.5395 187.034 26.7195C187.034 27.8995 187.284 28.9495 187.784 29.8695C188.284 30.7695 188.964 31.4695 189.824 31.9695C190.684 32.4695 191.644 32.7195 192.704 32.7195ZM230.765 16.2195V37.2195H225.875L216.605 26.0295V37.2195H210.785V16.2195H215.675L224.945 27.4095V16.2195H230.765Z" fill="white"/>
<path d="M118.24 68.8C119.253 68.8 120.133 68.9707 120.88 69.312C121.627 69.6427 122.203 70.1227 122.608 70.752C123.013 71.3707 123.216 72.1013 123.216 72.944C123.216 73.7867 123.013 74.5173 122.608 75.136C122.203 75.7547 121.627 76.2347 120.88 76.576C120.133 76.9067 119.253 77.072 118.24 77.072H116.288V80H113.12V68.8H118.24ZM118.048 74.576C118.699 74.576 119.189 74.4373 119.52 74.16C119.851 73.872 120.016 73.4667 120.016 72.944C120.016 72.4213 119.851 72.016 119.52 71.728C119.189 71.44 118.699 71.296 118.048 71.296H116.288V74.576H118.048ZM131.417 77.024H129.689V80H126.521V68.8H131.641C132.654 68.8 133.534 68.9707 134.281 69.312C135.027 69.6427 135.603 70.1227 136.009 70.752C136.414 71.3707 136.617 72.1013 136.617 72.944C136.617 73.7547 136.425 74.464 136.041 75.072C135.667 75.6693 135.129 76.1387 134.425 76.48L136.841 80H133.449L131.417 77.024ZM133.417 72.944C133.417 72.4213 133.251 72.016 132.921 71.728C132.59 71.44 132.099 71.296 131.449 71.296H129.689V74.576H131.449C132.099 74.576 132.59 74.4373 132.921 74.16C133.251 73.872 133.417 73.4667 133.417 72.944ZM149.116 77.552V80H140.124V68.8H148.908V71.248H143.26V73.136H148.236V75.504H143.26V77.552H149.116ZM156.57 80.224C155.664 80.224 154.784 80.112 153.93 79.888C153.077 79.664 152.384 79.3653 151.85 78.992L152.89 76.656C153.392 76.9867 153.973 77.2533 154.634 77.456C155.296 77.6587 155.946 77.76 156.586 77.76C157.802 77.76 158.41 77.456 158.41 76.848C158.41 76.528 158.234 76.2933 157.882 76.144C157.541 75.984 156.986 75.8187 156.218 75.648C155.376 75.4667 154.672 75.2747 154.106 75.072C153.541 74.8587 153.056 74.5227 152.65 74.064C152.245 73.6053 152.042 72.9867 152.042 72.208C152.042 71.5253 152.229 70.912 152.602 70.368C152.976 69.8133 153.53 69.376 154.266 69.056C155.013 68.736 155.925 68.576 157.002 68.576C157.738 68.576 158.464 68.6613 159.178 68.832C159.893 68.992 160.522 69.232 161.066 69.552L160.09 71.904C159.024 71.328 157.989 71.04 156.986 71.04C156.357 71.04 155.898 71.136 155.61 71.328C155.322 71.5093 155.178 71.7493 155.178 72.048C155.178 72.3467 155.349 72.5707 155.69 72.72C156.032 72.8693 156.581 73.024 157.338 73.184C158.192 73.3653 158.896 73.5627 159.45 73.776C160.016 73.9787 160.501 74.3093 160.906 74.768C161.322 75.216 161.53 75.8293 161.53 76.608C161.53 77.28 161.344 77.888 160.97 78.432C160.597 78.976 160.037 79.4133 159.29 79.744C158.544 80.064 157.637 80.224 156.57 80.224ZM173.746 77.552V80H164.754V68.8H173.538V71.248H167.89V73.136H172.866V75.504H167.89V77.552H173.746ZM187.92 68.8V80H185.312L180.368 74.032V80H177.264V68.8H179.872L184.816 74.768V68.8H187.92ZM194.298 71.312H190.858V68.8H200.89V71.312H197.466V80H194.298V71.312ZM207.735 80.224C206.829 80.224 205.949 80.112 205.095 79.888C204.242 79.664 203.549 79.3653 203.015 78.992L204.055 76.656C204.557 76.9867 205.138 77.2533 205.799 77.456C206.461 77.6587 207.111 77.76 207.751 77.76C208.967 77.76 209.575 77.456 209.575 76.848C209.575 76.528 209.399 76.2933 209.047 76.144C208.706 75.984 208.151 75.8187 207.383 75.648C206.541 75.4667 205.837 75.2747 205.271 75.072C204.706 74.8587 204.221 74.5227 203.815 74.064C203.41 73.6053 203.207 72.9867 203.207 72.208C203.207 71.5253 203.394 70.912 203.767 70.368C204.141 69.8133 204.695 69.376 205.431 69.056C206.178 68.736 207.09 68.576 208.167 68.576C208.903 68.576 209.629 68.6613 210.343 68.832C211.058 68.992 211.687 69.232 212.231 69.552L211.255 71.904C210.189 71.328 209.154 71.04 208.151 71.04C207.522 71.04 207.063 71.136 206.775 71.328C206.487 71.5093 206.343 71.7493 206.343 72.048C206.343 72.3467 206.514 72.5707 206.855 72.72C207.197 72.8693 207.746 73.024 208.503 73.184C209.357 73.3653 210.061 73.5627 210.615 73.776C211.181 73.9787 211.666 74.3093 212.071 74.768C212.487 75.216 212.695 75.8293 212.695 76.608C212.695 77.28 212.509 77.888 212.135 78.432C211.762 78.976 211.202 79.4133 210.455 79.744C209.709 80.064 208.802 80.224 207.735 80.224Z" fill="#CBFBCB"/>
<defs>
<filter id="filter0_d_247_24" x="149.475" y="100.059" width="26.5635" height="39.7501" filterUnits="userSpaceOnUse" color-interpolation-filters="sRGB">
<feFlood flood-opacity="0" result="BackgroundImageFix"/>
<feColorMatrix in="SourceAlpha" type="matrix" values="0 0 0 0 0 0 0 0 0 0 0 0 0 0 0 0 0 0 127 0" result="hardAlpha"/>
<feOffset dy="0.941176"/>
<feGaussianBlur stdDeviation="0.941176"/>
<feComposite in2="hardAlpha" operator="out"/>
<feColorMatrix type="matrix" values="0 0 0 0 0 0 0 0 0 0 0 0 0 0 0 0 0 0 0.25 0"/>
<feBlend mode="normal" in2="BackgroundImageFix" result="effect1_dropShadow_247_24"/>
<feBlend mode="normal" in="SourceGraphic" in2="effect1_dropShadow_247_24" result="shape"/>
</filter>
<filter id="filter1_d_247_24" x="29.5044" y="139.539" width="268.597" height="140.688" filterUnits="userSpaceOnUse" color-interpolation-filters="sRGB">
<feFlood flood-opacity="0" result="BackgroundImageFix"/>
<feColorMatrix in="SourceAlpha" type="matrix" values="0 0 0 0 0 0 0 0 0 0 0 0 0 0 0 0 0 0 127 0" result="hardAlpha"/>
<feOffset dy="1.88235"/>
<feGaussianBlur stdDeviation="0.941176"/>
<feComposite in2="hardAlpha" operator="out"/>
<feColorMatrix type="matrix" values="0 0 0 0 0 0 0 0 0 0 0 0 0 0 0 0 0 0 0.25 0"/>
<feBlend mode="normal" in2="BackgroundImageFix" result="effect1_dropShadow_247_24"/>
<feBlend mode="normal" in="SourceGraphic" in2="effect1_dropShadow_247_24" result="shape"/>
</filter>
</defs>
</svg>
