<svg width="500" height="500" viewBox="0 0 500 500" fill="none" xmlns="http://www.w3.org/2000/svg">
<g clip-path="url(#clip0_91_1117)">
<path d="M457.251 223H336.311C336.311 223 348.311 190.25 366.751 190.25C385.191 190.25 391.001 212.83 391.001 212.83C391.001 212.83 403.451 200.54 413.681 200.54C423.911 200.54 432.801 216.77 432.801 216.77C432.801 216.77 447.251 208.05 457.251 223Z" fill="#EBEBEB"/>
<path d="M355.43 152H298.9C298.9 152 311.53 133.7 321.48 133.7C331.43 133.7 334.37 145.9 334.37 145.9C334.37 145.9 341.37 140.21 347.9 141.22C354.43 142.23 355.43 152 355.43 152Z" fill="#EBEBEB"/>
<path d="M160.92 262H104.4C104.4 262 117 243.66 127 243.66C137 243.66 139.89 255.86 139.89 255.86C139.89 255.86 146.89 250.16 153.42 251.18C159.95 252.2 160.92 262 160.92 262Z" fill="#EBEBEB"/>
<path d="M152.84 165.82H42.75C42.75 165.82 57.82 132.16 74 130.05C90.18 127.94 97.84 155.05 97.84 155.05C97.84 155.05 108.25 145.46 116.43 145.46C124.61 145.46 130.92 158.08 130.92 158.08C130.92 158.08 147.23 149.46 152.84 165.82Z" fill="#EBEBEB"/>
<path d="M274.15 88.7801H199.77C199.77 88.7801 212.55 64.3901 226.41 64.0001C240.27 63.6101 247.55 82.4501 247.55 82.4501C247.55 82.4501 269.11 65.1901 274.15 88.7801Z" fill="#EBEBEB"/>
<path d="M434.921 446.29C434.921 450.63 402.771 454.15 363.121 454.15C323.471 454.15 291.311 450.63 291.311 446.29C291.311 441.95 323.461 438.42 363.121 438.42C402.781 438.42 434.921 441.94 434.921 446.29Z" fill="#EBEBEB"/>
<path d="M82.661 389.94C76.951 390.14 70.581 390.46 65.851 386.76C61.481 383.34 57.581 378.24 58.161 372.39C58.331 370.72 58.711 369.69 60.501 370.39C63.221 371.47 65.321 374.48 67.211 376.59C69.6116 379.335 72.2631 381.849 75.131 384.1C77.131 385.66 79.361 387.01 81.431 388.52L82.211 389.09L82.501 389.31H82.661C82.7078 389.309 82.7543 389.319 82.7963 389.34C82.8382 389.361 82.8742 389.392 82.901 389.43C82.928 389.476 82.943 389.528 82.9448 389.582C82.9466 389.635 82.9351 389.688 82.9112 389.736C82.8874 389.783 82.852 389.824 82.8083 389.855C82.7646 389.885 82.714 389.904 82.661 389.91V389.94Z" fill="#455A64"/>
<path d="M82.9406 389.56C77.9406 389.47 72.5006 389.7 68.4906 386.29C66.6449 384.662 65.0687 382.752 63.8206 380.63C63.2406 379.68 61.5006 376.86 62.2206 375.74C63.5306 373.74 69.5106 381.98 70.3406 382.74C73.4798 385.583 77.2997 387.567 81.4306 388.5L82.2106 389.07C79.2773 388.467 76.463 387.386 73.8806 385.87C70.3106 383.75 68.3306 380.61 65.5406 377.67C64.9406 377.03 63.1206 374.9 62.4406 376.23C61.9906 377.1 63.6706 379.86 64.0306 380.45C65.2201 382.459 66.707 384.276 68.4406 385.84C72.4406 389.34 77.8406 389.21 82.9006 389.42C82.9252 389.463 82.939 389.511 82.9406 389.56V389.56Z" fill="white"/>
<path d="M85.8101 393.42C85.8101 393.64 85.7201 393.86 85.6701 394.08C85.6618 394.107 85.6476 394.132 85.6286 394.153C85.6096 394.174 85.5862 394.19 85.5601 394.2C85.504 394.219 85.4431 394.217 85.3881 394.195C85.3332 394.173 85.2878 394.133 85.2601 394.08C85.2504 394.06 85.2453 394.038 85.2453 394.015C85.2453 393.993 85.2504 393.971 85.2601 393.95V393.86L85.3201 393.66C85.3201 393.66 85.3201 393.61 85.3201 393.59C84.3201 389.81 83.9201 385.88 82.8501 382.1C81.8501 378.49 80.5701 374.95 79.8501 371.27C79.3901 368.94 77.7801 357.27 82.9101 358.74C85.1901 359.39 86.7501 362.68 87.6101 364.65C88.7309 367.298 89.3644 370.127 89.4801 373C89.8601 380.14 87.2501 386.61 85.8101 393.42Z" fill="#455A64"/>
<path d="M87.4607 378.91C87.5605 376.248 87.281 373.584 86.6307 371C86.4007 370.11 85.2907 365.82 83.8307 365.93C82.9007 365.99 82.7407 367.84 82.6607 368.45C82.3307 371.04 83.1707 373.69 83.6607 376.22C84.6739 381.353 85.3056 386.554 85.5507 391.78C85.5507 392.11 85.4507 392.45 85.4207 392.78C85.3907 393.11 85.3507 393.33 85.3107 393.61C85.3053 393.704 85.3053 393.797 85.3107 393.89V394.11C85.3368 394.164 85.382 394.206 85.4375 394.228C85.493 394.251 85.5548 394.251 85.6107 394.23L85.7007 393.59C85.7007 393.77 85.7007 393.93 85.7007 394.11C85.7007 393.93 85.7707 393.75 85.8007 393.57V393.45C85.8007 393.16 85.8007 392.87 85.8007 392.58C86.6232 388.06 87.1775 383.496 87.4607 378.91V378.91ZM85.7207 390.68C85.5807 387.62 85.2807 384.57 84.8407 381.55C84.5007 379.1 84.0407 376.69 83.5207 374.28C83.1899 372.924 82.9725 371.543 82.8707 370.15C82.8207 369.09 82.9807 365.15 85.0007 367.59C86.4607 369.36 86.8207 373.13 87.0007 375.3C87.179 377.709 87.1321 380.13 86.8607 382.53C86.5807 385.26 86.1307 388 85.7207 390.68Z" fill="white"/>
<path d="M88.8911 409.09H88.6811C83.4611 408.83 76.5011 409.32 72.1611 405.86C68.9511 403.31 65.8011 398.26 66.8111 393.99C67.9611 389.16 74.4811 394.99 76.2011 396.35C80.6976 400.268 84.971 404.434 89.0011 408.83L89.0711 408.92C89.1111 409 89.0011 409.07 88.8911 409.09Z" fill="#455A64"/>
<path d="M89.071 408.94L88.161 408.38C84.731 406.22 81.381 403.9 78.161 401.43C77.341 400.81 71.461 395.58 70.581 397.43C70.051 398.56 71.991 400.86 72.581 401.64C73.7077 403.038 75.0596 404.237 76.581 405.19C80.061 407.36 84.291 407.82 88.231 408.87C88.4166 408.907 88.6001 408.954 88.781 409.01L88.8809 409.07C89.0009 409.07 89.111 409 89.071 408.94ZM78.731 405.94C77.0711 405.182 75.55 404.151 74.231 402.89C73.351 402.06 70.231 398.89 71.081 397.65C71.521 396.97 71.881 397.33 72.711 397.74C73.0951 397.928 73.4659 398.142 73.821 398.38C74.701 398.95 75.501 399.62 76.321 400.27C77.751 401.42 79.201 402.53 80.691 403.61C83.121 405.38 85.611 407.04 88.161 408.61C85.001 407.69 81.721 407.31 78.731 406V405.94Z" fill="white"/>
<path d="M98.431 398.33C97.0483 404.32 93.9155 409.764 89.431 413.97L89.331 414.03C89.2812 414.042 89.2289 414.039 89.1809 414.021C89.1329 414.003 89.0912 413.971 89.061 413.93C89.0231 413.889 89.002 413.836 89.002 413.78C89.002 413.724 89.0231 413.671 89.061 413.63L89.321 413.36C90.191 406.26 91.141 399.2 91.871 392.08C92.041 390.4 93.361 379.72 96.641 381.46C98.641 382.53 98.801 386.91 98.971 388.88C99.2717 392.039 99.0896 395.226 98.431 398.33V398.33Z" fill="#455A64"/>
<path d="M96.5296 388.82C96.3496 388.22 96.0396 387.61 95.3796 388.03C94.1096 388.82 93.5996 393.85 93.3796 395.24C92.4996 400.96 91.1496 406.47 89.7696 412.08C89.6496 412.55 89.5396 413.02 89.4196 413.5L89.0996 413.93C89.1267 413.975 89.1686 414.008 89.2181 414.025C89.2675 414.041 89.3212 414.04 89.3696 414.02C89.3663 413.973 89.3663 413.927 89.3696 413.88L89.7996 413.31C92.047 410.238 93.8014 406.833 94.9996 403.22C95.7443 400.945 96.2537 398.599 96.5196 396.22C96.7896 394 97.1996 391 96.5296 388.82ZM89.8296 412.92C89.7696 413.02 89.6996 413.1 89.6296 413.2C89.7029 413.007 89.7629 412.817 89.8096 412.63C91.1538 408.37 92.2227 404.028 93.0096 399.63C93.3896 397.39 93.6296 395.13 94.0896 392.91C94.2796 391.97 94.7396 389.29 95.5196 388.86C96.2996 388.43 96.2796 389.47 96.3596 390.07C96.4196 390.5 96.4196 391.29 96.4296 391.7C96.5225 399.292 94.2124 406.72 89.8296 412.92V412.92Z" fill="white"/>
<path d="M90.3399 429.28H89.3399L89.2799 426.53C89.1499 422.82 88.9999 419.11 88.7799 415.4C88.6599 413.28 88.4999 411.18 88.2799 409.1C88.275 409.03 88.275 408.96 88.2799 408.89C88.2799 408.72 88.2799 408.55 88.2099 408.38C88.1964 408.196 88.1731 408.012 88.1399 407.83C87.6727 403.123 86.4644 398.52 84.5599 394.19C83.8899 392.75 83.1699 391.34 82.4099 389.94L82.1799 389.54C82.1674 389.503 82.147 389.469 82.1199 389.44C82.0499 389.29 81.9699 389.16 81.8899 389.02C81.8099 388.88 81.7799 388.82 81.7099 388.71C79.2999 384.46 76.5299 380.4 73.9099 376.3C73.1599 375.14 72.4099 373.96 71.6699 372.78C71.623 372.712 71.5796 372.642 71.5399 372.57C71.4799 372.49 71.4299 372.4 71.3699 372.31C68.0799 367.11 64.8399 361.87 61.4199 356.77C61.2899 356.59 61.5999 356.42 61.7199 356.6C64.0299 359.99 66.4199 363.31 68.7999 366.66C69.1099 367.1 69.4199 367.56 69.7399 368C70.3699 368.88 70.9899 369.76 71.6099 370.65C72.8499 372.42 74.0699 374.19 75.2699 375.99C78.7876 380.972 81.997 386.166 84.8799 391.54C85.0899 391.95 85.2799 392.36 85.4799 392.77C85.6799 393.18 85.7299 393.29 85.8299 393.54C85.9299 393.79 86.1099 394.14 86.2399 394.44C88.367 399.675 89.5552 405.243 89.7499 410.89C89.7499 411.28 89.8099 411.68 89.8299 412.08C89.8299 412.25 89.8299 412.44 89.8299 412.63C89.8299 412.82 89.8299 412.82 89.8299 412.92C89.8299 413.02 89.8299 413.17 89.8299 413.3V413.58C89.8299 413.92 89.8299 414.25 89.8799 414.58C90.0299 418.29 90.1299 422 90.2099 425.7C90.2499 426.91 90.2999 428.09 90.3399 429.28Z" fill="#455A64"/>
<path d="M59.1703 362.07C56.3103 358.23 52.6403 350.29 56.8603 346.17C57.6275 345.365 58.6665 344.875 59.7755 344.793C60.8844 344.712 61.9839 345.046 62.8603 345.73C65.0903 347.34 66.0903 350.38 66.8603 352.9C68.7903 359.63 70.0703 366.48 72.4803 373.08C72.4803 373.08 72.6803 373.64 72.7403 373.78C72.8003 373.92 72.5703 373.98 72.5203 373.84L72.2803 373.2C67.6503 369.9 62.5603 366.63 59.1703 362.07Z" fill="#455A64"/>
<path d="M72.4408 373.09L72.3708 372.98C71.3812 371.367 70.4863 369.697 69.6908 367.98C68.1013 364.399 66.7288 360.726 65.5808 356.98C65.1208 355.54 63.0708 348.47 60.5808 351.29C59.5108 352.48 59.6608 354.58 59.8308 356.03C60.1218 358.36 60.8694 360.61 62.0308 362.65C64.3008 366.73 67.8208 369.82 71.5208 372.57L72.0008 373C72.0008 373.06 72.0708 373.11 72.1008 373.18L72.1708 373.29C72.1852 373.313 72.2061 373.33 72.2308 373.34C72.2517 373.35 72.2744 373.356 72.2975 373.356C72.3206 373.357 72.3436 373.353 72.3651 373.345C72.3867 373.336 72.4063 373.324 72.4227 373.307C72.4391 373.291 72.4521 373.272 72.4608 373.25C72.4746 373.196 72.4675 373.139 72.4408 373.09V373.09ZM71.3208 372.31C68.2647 370.036 65.5679 367.316 63.3208 364.24C62.1911 362.594 61.3084 360.792 60.7008 358.89C60.4434 358.04 60.2561 357.171 60.1408 356.29C60.0396 355.629 59.9994 354.959 60.0208 354.29C60.0708 352.84 60.6708 351.29 61.5308 351.1C62.5908 350.91 62.9408 351.53 63.6408 352.75C63.8746 353.161 64.085 353.585 64.2708 354.02C64.7408 355.11 65.1008 356.25 65.4608 357.37C66.0508 359.24 66.6508 361.1 67.3308 362.94C67.7808 364.19 68.2608 365.43 68.8008 366.64C69.7016 368.74 70.7475 370.775 71.9308 372.73L71.3208 372.31Z" fill="white"/>
<path d="M417.829 372.82C417.349 376.63 416.629 380.41 415.829 384.16C415.399 386.3 414.94 388.43 414.51 390.57C414.03 392.92 413.33 395.31 413.97 397.69C413.983 397.8 413.983 397.911 413.97 398.02V398.02C413.939 398.061 413.898 398.093 413.85 398.112C413.803 398.131 413.751 398.137 413.7 398.129C413.65 398.121 413.602 398.099 413.564 398.065C413.525 398.032 413.496 397.989 413.48 397.94C413.476 397.887 413.476 397.834 413.48 397.78V397.73C413.128 397.099 412.852 396.427 412.66 395.73C411.921 393.932 411.286 392.092 410.76 390.22C409.66 386.392 409.038 382.442 408.91 378.46C408.807 374.918 409.173 371.377 410 367.93C410.68 365.17 411.639 361.04 413.709 358.93C415.579 357.02 417.139 360.08 417.709 361.64C418.859 365.15 418.269 369.21 417.829 372.82Z" fill="#455A64"/>
<path d="M414.41 364.73C413.02 364.73 412.01 369.22 411.52 371.16C410.745 374.217 410.345 377.357 410.33 380.51C410.348 386.169 411.321 391.785 413.21 397.12C413.28 397.33 413.35 397.56 413.43 397.77V397.82C413.426 397.87 413.426 397.92 413.43 397.97C413.447 398.019 413.476 398.063 413.515 398.097C413.555 398.131 413.602 398.153 413.654 398.163C413.705 398.172 413.757 398.167 413.806 398.149C413.854 398.131 413.897 398.1 413.93 398.06C413.84 397.59 413.77 397.13 413.71 396.66C413.65 396.19 413.62 395.82 413.59 395.4C413.21 390.84 413.87 386.18 414.44 381.65C415.19 376.34 416.26 364.74 414.41 364.73ZM413.41 396.3C413.48 396.92 413.58 397.53 413.7 398.13C413.56 397.69 413.41 397.25 413.28 396.8C411.751 392.057 410.87 387.129 410.66 382.15C410.568 379.343 410.772 376.534 411.27 373.77C411.543 372.29 411.903 370.827 412.35 369.39C412.55 368.79 413.56 365.03 414.41 365.22C415.02 365.35 415.16 368.73 415.17 368.8C415.17 369.48 415.17 370.16 415.17 370.8C415.17 372.2 415.06 373.6 414.94 374.99C414.68 377.99 414.24 380.99 413.88 383.99C413.238 388.06 413.08 392.192 413.41 396.3V396.3Z" fill="white"/>
<path d="M439.711 383.35C437.161 388.35 432.861 392.14 428.431 395.35C426.051 397.1 423.591 398.74 421.171 400.43C418.925 401.824 416.825 403.439 414.901 405.25L414.661 405.51C414.166 406.06 413.73 406.66 413.361 407.3C413.35 407.323 413.333 407.343 413.312 407.357C413.291 407.371 413.266 407.379 413.241 407.38C413.22 407.456 413.193 407.529 413.161 407.6C413.161 407.613 413.155 407.626 413.146 407.635C413.137 407.645 413.124 407.65 413.111 407.65C413.097 407.65 413.085 407.645 413.075 407.635C413.066 407.626 413.061 407.613 413.061 407.6V407.35C413.04 407.323 413.029 407.289 413.029 407.255C413.029 407.221 413.04 407.188 413.061 407.16C413.062 407.133 413.062 407.107 413.061 407.08C413.056 407 413.056 406.92 413.061 406.84C413.781 401.02 417.851 395.14 421.291 390.66C424.731 386.18 428.981 382.22 434.291 380.17C435.631 379.66 438.671 378.24 440.021 379.33C441.371 380.42 440.261 382.29 439.711 383.35Z" fill="#455A64"/>
<path d="M435.77 383.37C434.56 382.16 430.99 385.15 430.1 385.85C427.434 388.026 424.962 390.428 422.71 393.03C418.872 397.059 415.69 401.665 413.28 406.68V406.68L413.16 406.84C413.16 406.93 413.16 407.01 413.16 407.09C413.157 407.117 413.157 407.144 413.16 407.17C413.137 407.198 413.125 407.234 413.125 407.27C413.125 407.306 413.137 407.342 413.16 407.37C413.23 407.3 413.28 407.22 413.34 407.16C413.78 406.61 414.25 406.08 414.73 405.56L414.97 405.3C418.428 401.822 422.102 398.566 425.97 395.55C428.639 393.406 431.1 391.016 433.32 388.41C433.85 387.74 436.79 384.39 435.77 383.37ZM434.66 386C431.66 391 426.43 394.64 422 398.28C418.95 400.671 416.137 403.35 413.6 406.28C415.948 401.817 418.88 397.687 422.32 394C424.202 391.832 426.205 389.772 428.32 387.83C429.457 386.768 430.673 385.795 431.96 384.92C432.725 384.381 433.551 383.935 434.42 383.59C436.11 383.11 435.17 385.18 434.66 386Z" fill="white"/>
<path d="M412.549 419.21C412.523 419.255 412.485 419.292 412.439 419.317C412.393 419.342 412.342 419.353 412.289 419.35L412.359 419.44C412.368 419.448 412.375 419.459 412.38 419.47C412.385 419.481 412.387 419.493 412.387 419.505C412.387 419.517 412.385 419.529 412.38 419.54C412.375 419.552 412.368 419.562 412.359 419.57C412.352 419.579 412.343 419.585 412.332 419.59C412.322 419.595 412.311 419.597 412.299 419.597C412.288 419.597 412.277 419.595 412.267 419.59C412.256 419.585 412.247 419.579 412.239 419.57C407.519 414.77 402.979 408.94 400.629 402.57C399.615 399.89 399.044 397.063 398.939 394.2C398.889 392.2 398.789 388.3 400.459 386.87C403.829 384 406.909 396.17 407.359 398C408.199 401.35 408.749 404.76 409.519 408.11C410.369 411.79 411.519 415.4 412.579 419C412.592 419.035 412.595 419.072 412.59 419.109C412.585 419.145 412.571 419.18 412.549 419.21V419.21Z" fill="#455A64"/>
<path d="M412.55 419.2C412.37 418.89 412.19 418.59 412.02 418.27C409.187 413.161 407.156 407.646 406 401.92C405.495 399.025 404.745 396.178 403.76 393.41C403.48 392.74 402.64 390.14 401.53 391.41C400.95 392.1 401.43 397.01 401.66 398.28C402.225 401.169 403.146 403.977 404.4 406.64C406.443 411.129 409.04 415.345 412.13 419.19L412.39 419.53C412.398 419.522 412.405 419.512 412.41 419.5C412.415 419.489 412.417 419.477 412.417 419.465C412.417 419.453 412.415 419.441 412.41 419.43C412.405 419.418 412.398 419.408 412.39 419.4L412.33 419.32C412.373 419.316 412.414 419.304 412.452 419.283C412.49 419.263 412.523 419.234 412.55 419.2ZM405.71 408.75C404.349 406.167 403.263 403.449 402.47 400.64C402.168 399.518 401.931 398.379 401.76 397.23C401.619 396.33 401.542 395.421 401.53 394.51C401.53 392.29 401.73 391.71 402.1 391.63C402.47 391.55 402.65 391.83 403.3 393.15C403.705 394.02 404.023 394.928 404.25 395.86C404.59 397.17 404.9 398.49 405.18 399.81C405.75 402.46 406.29 405.13 407.06 407.72C408.143 411.456 409.72 415.031 411.75 418.35C409.47 415.325 407.45 412.114 405.71 408.75V408.75Z" fill="white"/>
<path d="M427.68 407.54C427.13 409.883 426.075 412.077 424.59 413.97C421.79 417.84 418.21 421.05 415.15 424.71C414.7 425.25 414.25 425.81 413.82 426.38C413.77 426.44 413.42 427.25 413.43 427.18C413.44 427.11 413.48 426.86 413.58 426.34C414.08 423.78 415.68 416.05 417.69 412.09C418.89 409.584 420.391 407.233 422.16 405.09C423.02 404.09 425.06 401.99 426.59 402.45C428.12 402.91 427.92 406.31 427.68 407.54Z" fill="#455A64"/>
<path d="M425.191 406C423.551 405 419.331 412.52 418.761 413.5C416.677 417.108 415.077 420.975 414.001 425C413.861 425.45 413.751 425.9 413.631 426.36L413.471 427.2C413.471 427.2 413.831 426.47 413.871 426.4L414.091 426.1L415.201 424.73C417.031 421.99 418.921 419.27 420.701 416.48C422.003 414.484 423.143 412.388 424.111 410.21C424.271 409.7 425.911 406.42 425.191 406ZM424.721 408.12C422.391 414.68 417.641 419.85 414.011 425.68L413.831 425.96L413.981 425.45C414.96 422.143 416.249 418.935 417.831 415.87C418.804 414.008 419.886 412.205 421.071 410.47C421.676 409.491 422.344 408.553 423.071 407.66C423.411 407.29 424.371 406.31 424.701 406.47C425.031 406.63 424.871 407.67 424.721 408.1V408.12Z" fill="white"/>
<path d="M444.13 353.39C439.26 364.57 426.49 369.78 420.95 380.56C420.95 380.56 420.95 380.56 420.95 380.61C420.78 380.94 420.62 381.27 420.46 381.61C420.446 381.645 420.423 381.675 420.393 381.699C420.364 381.722 420.329 381.737 420.292 381.743C420.255 381.749 420.217 381.746 420.182 381.733C420.146 381.72 420.115 381.698 420.09 381.67C420.072 381.643 420.062 381.612 420.062 381.58C420.062 381.548 420.072 381.517 420.09 381.49L420.21 381.24C421.07 374.52 423.83 367.6 427.04 361.67C429.84 356.51 433.67 351.67 438.97 348.98C440.28 348.31 442.83 346.89 444.29 347.98C445.75 349.07 444.73 352 444.13 353.39Z" fill="#455A64"/>
<path d="M439.751 353.87C439.131 353.41 438.191 353.96 437.661 354.24C436.335 354.929 435.096 355.776 433.971 356.76C431.669 358.786 429.684 361.146 428.081 363.76C425.19 368.144 422.856 372.87 421.131 377.83C420.761 378.95 420.441 380.08 420.131 381.24C420.131 381.38 420.071 381.52 420.031 381.66C420.056 381.687 420.087 381.707 420.122 381.719C420.156 381.731 420.193 381.735 420.229 381.73C420.265 381.725 420.3 381.712 420.33 381.691C420.36 381.67 420.384 381.643 420.401 381.61C420.551 381.27 420.711 380.96 420.861 380.61L420.911 380.52C421.857 378.289 423.02 376.155 424.381 374.15C426.621 371.115 429.057 368.229 431.671 365.51C432.701 364.44 441.891 355.43 439.751 353.87ZM438.971 356.45C437.491 359.08 435.201 361.23 433.191 363.45C431.181 365.67 429.131 367.94 427.191 370.22C425.608 372.035 424.183 373.982 422.931 376.04C421.879 377.748 420.985 379.549 420.261 381.42C420.778 379.518 421.415 377.651 422.171 375.83C422.171 375.83 422.171 375.83 422.171 375.76C423.545 372.531 425.122 369.391 426.891 366.36C426.915 366.322 426.935 366.282 426.951 366.24C428.442 363.531 430.251 361.01 432.341 358.73C433.487 357.499 434.772 356.405 436.171 355.47C437.771 354.47 439.171 353.76 439.571 354.27C439.971 354.78 439.411 355.68 439.001 356.45H438.971Z" fill="white"/>
<path d="M427.13 366.49C425.67 369.65 424.27 372.84 422.89 376.05C422.23 377.55 421.59 379.05 420.95 380.55L420.9 380.64L420.21 382.27C418.1 387.18 415.78 392.2 414.49 397.4C413.839 400.157 413.451 402.97 413.33 405.8C413.33 406.09 413.33 406.38 413.28 406.68C413.28 406.84 413.28 407 413.28 407.16C413.275 407.25 413.275 407.34 413.28 407.43C413.19 409.88 413.23 412.34 413.28 414.73C413.35 418.07 413.63 421.38 413.95 424.73C413.94 424.827 413.94 424.924 413.95 425.02C413.95 425.17 413.95 425.32 413.95 425.47V425.7V426.12C414.06 427.19 414.16 428.25 414.24 429.32H413.24C412.578 426.077 412.167 422.787 412.01 419.48C412.005 419.41 412.005 419.34 412.01 419.27C412.01 418.95 411.99 418.617 411.95 418.27C411.95 417.87 411.95 417.48 411.95 417.08C411.95 416.08 411.89 415.18 411.87 414.24C411.608 408.717 412 403.181 413.04 397.75C413.04 397.6 413.11 397.46 413.15 397.31C413.14 397.247 413.14 397.183 413.15 397.12C413.15 397.02 413.15 396.91 413.22 396.8L413.35 396.3C413.43 396 413.52 395.7 413.61 395.4L413.69 395.14C415.251 390.491 417.129 385.953 419.31 381.56C419.68 380.76 420.06 379.96 420.44 379.16L421.07 377.84L422.07 375.84C422.07 375.84 422.07 375.84 422.07 375.77C423.63 372.63 425.25 369.52 426.79 366.37C427 366.23 427.2 366.34 427.13 366.49Z" fill="#455A64"/>
<path d="M459.39 429.28L407.05 429.52L354.7 429.61L250 429.78L145.3 429.61L92.9496 429.53L40.5996 429.28L92.9496 429.04L145.3 428.95L250 428.78L354.7 428.95L407.05 429.04L459.39 429.28Z" fill="#263238"/>
<path d="M209.999 251.72C220.829 281.24 248.869 338.49 269.689 347.18C287.359 354.55 329.529 355.45 342.119 354.9C348.779 354.61 337.119 297.97 329.999 298.09C322.689 298.21 289.329 297.23 284.099 296.23C278.869 295.23 250.219 259.96 232.369 241.23C209.839 217.71 201.099 227.54 209.999 251.72Z" fill="#D3766A"/>
<path d="M333.628 354.45C340.348 355.19 371.858 356.07 380.558 354.32C389.258 352.57 413.928 345.7 413.258 338.9C412.588 332.1 405.208 333.54 405.208 333.54C405.208 333.54 415.208 328.99 413.868 322.21C412.528 315.43 401.168 318.03 401.168 318.03C401.168 318.03 411.048 312.61 409.278 305.94C407.508 299.27 396.458 303.81 396.458 303.81C396.458 303.81 405.728 299.28 401.958 294.39C397.418 288.52 381.268 298.8 371.518 300.02C369.298 300.3 326.238 302.42 326.238 302.42L333.628 354.45Z" fill="#D3766A"/>
<path d="M397.419 303.44C385.529 310.97 379.019 312.21 365.159 312.23C364.889 312.23 364.829 312.63 365.109 312.66C378.689 313.87 387.109 313.5 397.809 303.99C398.339 303.53 397.999 303.08 397.419 303.44Z" fill="#263238"/>
<path d="M402.099 317.41C389.099 324.16 382.019 325.56 367.509 326.66C367.299 326.66 367.309 327.02 367.509 327.02C381.839 327.14 390.199 326.57 402.339 318.12C402.889 317.74 402.699 317.1 402.099 317.41Z" fill="#263238"/>
<path d="M404.47 333.57C391.38 339.19 383.72 341.06 369.47 340.31C369.436 340.307 369.401 340.31 369.368 340.32C369.336 340.331 369.305 340.347 369.279 340.369C369.252 340.391 369.23 340.417 369.214 340.448C369.198 340.478 369.188 340.511 369.185 340.545C369.182 340.579 369.185 340.614 369.195 340.647C369.205 340.679 369.221 340.71 369.243 340.736C369.265 340.763 369.292 340.785 369.322 340.801C369.353 340.817 369.386 340.827 369.42 340.83C383.85 343.01 393.42 340.74 404.58 333.98C405.36 333.52 405.29 333.21 404.47 333.57Z" fill="#263238"/>
<path d="M317.389 302.27C317.389 302.27 330.289 290.27 337.119 286.21C343.949 282.15 374.949 276.5 376.559 283.13C378.629 291.68 361.379 298.48 352.499 300.7C352.499 300.7 357.309 320.49 345.979 328.05C334.649 335.61 317.389 302.27 317.389 302.27Z" fill="#D3766A"/>
<path d="M376.359 285.67C372.619 294.83 360.769 297 352.309 299.8C352.182 299.836 352.066 299.902 351.97 299.993C351.874 300.083 351.802 300.196 351.758 300.32C351.715 300.445 351.703 300.578 351.722 300.709C351.741 300.839 351.792 300.963 351.869 301.07C353.339 309.49 352.949 321.81 346.529 328.16C346.488 328.194 346.462 328.244 346.458 328.297C346.453 328.351 346.47 328.404 346.504 328.445C346.539 328.486 346.588 328.512 346.642 328.516C346.695 328.521 346.748 328.504 346.789 328.47C354.599 322.6 355.969 310.53 353.789 301.4C362.509 298.66 374.289 295.97 376.459 285.7C376.459 285.64 376.379 285.61 376.359 285.67Z" fill="#263238"/>
<path d="M227.998 302.72L285.528 290.72C285.528 290.72 245.028 246.21 224.808 230.85C203.738 214.85 194.438 218.23 206.568 251.11C218.788 284.2 227.998 302.72 227.998 302.72Z" fill="#038C3E"/>
<path d="M234.54 283.83C234.081 283.781 233.639 283.627 233.25 283.38C232.894 283.153 232.603 282.838 232.406 282.464C232.21 282.09 232.114 281.672 232.13 281.25C232.113 280.6 231.906 279.97 231.535 279.436C231.163 278.903 230.644 278.49 230.04 278.25C229.478 278.066 228.879 278.031 228.3 278.15C227.758 278.231 227.22 278.341 226.69 278.48C227.24 278.6 227.75 278.67 228.3 278.77C228.763 278.815 229.212 278.955 229.62 279.18C229.974 279.398 230.268 279.702 230.475 280.064C230.681 280.426 230.793 280.834 230.8 281.25C230.8 281.892 230.99 282.519 231.346 283.053C231.702 283.587 232.207 284.003 232.8 284.25C233.348 284.485 233.954 284.551 234.54 284.44C235.09 284.31 235.6 284.25 236.12 284.12C235.6 283.987 235.072 283.89 234.54 283.83V283.83ZM203.5 234C203.025 233.967 202.567 233.812 202.17 233.55C201.912 233.375 201.688 233.155 201.51 232.9C201.58 233.41 201.66 233.95 201.77 234.51C202.323 234.713 202.921 234.761 203.5 234.65C204.03 234.574 204.554 234.463 205.07 234.32C204.553 234.185 204.029 234.078 203.5 234V234ZM254.4 258C254.352 258.413 254.219 258.811 254.01 259.17C253.8 259.531 253.5 259.832 253.139 260.042C252.777 260.253 252.368 260.366 251.95 260.37C251.306 260.362 250.676 260.548 250.14 260.905C249.605 261.262 249.19 261.773 248.95 262.37C248.696 262.91 248.639 263.522 248.79 264.1C248.88 264.64 248.95 265.16 249.07 265.67C249.211 265.154 249.322 264.629 249.4 264.1C249.449 263.641 249.603 263.2 249.85 262.81C250.077 262.45 250.396 262.158 250.774 261.963C251.152 261.768 251.575 261.677 252 261.7C252.651 261.691 253.286 261.488 253.82 261.115C254.355 260.743 254.766 260.218 255 259.61C255.103 259.324 255.157 259.023 255.16 258.72L254.4 258ZM230 244.12C229.644 244.416 229.222 244.622 228.77 244.72C228.362 244.815 227.936 244.801 227.535 244.678C227.135 244.555 226.774 244.328 226.49 244.02C226.02 243.579 225.431 243.286 224.797 243.178C224.162 243.069 223.509 243.15 222.92 243.41C222.376 243.66 221.917 244.063 221.6 244.57C221.3 245.02 220.96 245.44 220.7 245.92C221.18 245.63 221.6 245.31 222.05 245.02C222.391 244.7 222.813 244.479 223.27 244.38C223.673 244.266 224.098 244.259 224.505 244.359C224.912 244.459 225.285 244.662 225.59 244.95C226.031 245.411 226.601 245.729 227.225 245.861C227.85 245.993 228.5 245.933 229.09 245.69C229.649 245.455 230.131 245.067 230.48 244.57C230.77 244.12 231.09 243.7 231.35 243.21C230.83 243.51 230.41 243.83 230 244.12ZM273.85 280.9C273.501 281.202 273.081 281.412 272.63 281.51C272.222 281.605 271.796 281.591 271.395 281.468C270.995 281.345 270.634 281.118 270.35 280.81C269.88 280.37 269.291 280.078 268.656 279.969C268.022 279.861 267.369 279.941 266.78 280.2C266.236 280.45 265.777 280.853 265.46 281.36C265.16 281.81 264.82 282.23 264.55 282.71C265.04 282.42 265.46 282.1 265.91 281.81C266.25 281.488 266.672 281.267 267.13 281.17C267.533 281.057 267.958 281.05 268.365 281.15C268.771 281.25 269.145 281.453 269.45 281.74C269.891 282.201 270.461 282.519 271.085 282.651C271.71 282.783 272.36 282.723 272.95 282.48C273.509 282.245 273.991 281.857 274.34 281.36C274.63 280.9 274.95 280.48 275.21 280C274.69 280.3 274.27 280.62 273.81 280.9H273.85Z" fill="white"/>
<path d="M229.839 292C231.179 291.55 232.579 291.3 233.949 291L238.169 290C241.019 289.33 243.879 288.71 246.739 288.1C252.459 286.89 258.179 285.66 263.919 284.54C265.499 284.24 267.079 283.94 268.659 283.67C270.239 283.4 272.019 283.23 273.659 282.95C273.769 282.95 273.779 283.09 273.659 283.11C272.259 283.45 270.869 283.91 269.469 284.26C268.069 284.61 266.579 284.96 265.119 285.26C262.265 285.894 259.406 286.504 256.539 287.09C250.899 288.24 245.259 289.41 239.589 290.44L234.849 291.29C233.189 291.59 231.519 291.99 229.849 292.14C229.799 292.17 229.749 292 229.839 292Z" fill="#263238"/>
<path opacity="0.1" d="M255.93 296.91L228 302.72C228 302.72 218.77 284.2 206.56 251.12C201.42 237.12 200.13 228.53 201.97 224.43L255.93 296.91Z" fill="black"/>
<path d="M247.998 429.28H159.128C158.398 426.42 157.688 423.6 156.978 420.83C156.168 417.65 155.368 414.54 154.608 411.51C154.438 410.84 154.258 410.16 154.088 409.51L152.368 402.73C152.028 401.39 151.688 400.08 151.368 398.73C151.048 397.38 150.698 396.1 150.368 394.83C150.278 394.49 150.198 394.15 150.108 393.83L149.838 392.74C149.728 392.29 149.618 391.86 149.508 391.43C149.378 390.97 149.268 390.52 149.158 390.07C148.928 389.22 148.718 388.37 148.518 387.55C148.198 386.33 147.898 385.14 147.598 383.98C147.478 383.48 147.338 382.98 147.218 382.47C147.008 381.66 146.798 380.88 146.608 380.1L146.228 378.58C145.698 376.58 145.228 374.63 144.768 372.84C144.638 372.37 144.528 371.9 144.408 371.45C144.218 370.68 144.018 369.93 143.838 369.21C143.718 368.76 143.608 368.33 143.508 367.9C143.108 366.37 142.748 364.97 142.448 363.74C142.358 363.42 142.278 363.1 142.198 362.8C141.998 361.99 141.808 361.27 141.648 360.63C141.578 360.37 141.528 360.12 141.458 359.89C141.388 359.66 141.328 359.4 141.278 359.19C141.228 358.98 141.198 358.87 141.158 358.74C141.118 358.61 141.048 358.31 141.008 358.13C140.968 357.95 140.958 357.94 140.938 357.86C140.798 357.33 140.738 357.06 140.738 357.06H227.198C227.198 357.06 230.038 366.87 234.598 382.7C235.518 385.92 236.528 389.4 237.598 393.09C240.608 403.64 244.148 416 247.998 429.28Z" fill="#37474F"/>
<path d="M173.669 429.28H171.459C168.166 415.673 164.979 402.04 161.899 388.38C161.159 385.047 160.422 381.713 159.689 378.38C159.629 378.07 159.559 377.76 159.489 377.45C159.48 377.415 159.485 377.379 159.502 377.348C159.52 377.317 159.55 377.294 159.584 377.285C159.618 377.276 159.655 377.28 159.686 377.298C159.717 377.316 159.74 377.345 159.749 377.38L159.839 377.68C160.839 381.247 161.839 384.823 162.839 388.41C166.579 401.997 170.189 415.62 173.669 429.28Z" fill="#263238"/>
<path d="M224.378 357.06L220.568 376.16L217.438 391.83L212.108 418.53L211.558 421.26L210.648 425.82L209.958 429.28H159.118C158.398 426.41 157.678 423.59 156.978 420.83C156.168 417.65 155.368 414.54 154.608 411.51C154.438 410.84 154.258 410.16 154.088 409.51L152.368 402.73C152.028 401.39 151.688 400.08 151.368 398.73C151.048 397.38 150.698 396.1 150.368 394.83C150.278 394.49 150.198 394.15 150.108 393.83L149.838 392.74C149.728 392.29 149.618 391.86 149.508 391.43C149.378 390.97 149.268 390.52 149.158 390.07C148.928 389.22 148.718 388.37 148.518 387.55C148.198 386.33 147.898 385.14 147.598 383.98C147.468 383.46 147.338 382.98 147.218 382.47C147.008 381.66 146.798 380.88 146.608 380.1L146.228 378.58C145.698 376.58 145.228 374.63 144.768 372.84C144.638 372.37 144.528 371.9 144.408 371.45C144.218 370.68 144.018 369.93 143.838 369.21C143.718 368.76 143.608 368.33 143.508 367.9C143.108 366.37 142.748 364.97 142.448 363.74C142.358 363.42 142.278 363.1 142.198 362.8C141.998 361.99 141.808 361.27 141.648 360.63C141.578 360.37 141.528 360.12 141.458 359.89C141.388 359.66 141.328 359.4 141.278 359.19C141.228 358.98 141.198 358.87 141.158 358.74C141.118 358.61 141.048 358.31 141.008 358.13C140.968 357.95 140.958 357.94 140.938 357.86C140.798 357.33 140.738 357.06 140.738 357.06H224.378Z" fill="#263238"/>
<path d="M224.39 357C224.39 357.47 224.03 362.63 223.2 370.49C222.96 372.79 222.68 375.31 222.36 378.01C221.85 382.28 221.22 387.01 220.44 391.96C219.11 400.64 217.38 410.1 215.13 419.36C214.33 422.69 213.45 425.99 212.52 429.22H100.91C102.23 412.22 103.44 396.83 104.39 384.7C105.73 367.64 106.59 356.96 106.59 356.96H207.82L224.39 357Z" fill="#37474F"/>
<path d="M224.159 367.28C224.029 371.28 223.859 375.28 223.609 379.28C223.339 383.59 222.939 387.89 222.379 392.19C222.379 392.35 222.379 392.51 222.319 392.67C221.789 396.67 221.199 400.67 220.509 404.72C219.869 408.46 219.399 412.49 217.739 415.94C217.115 417.28 216.227 418.481 215.129 419.47C214.123 420.389 212.891 421.024 211.559 421.31C211.342 421.366 211.122 421.406 210.899 421.43H210.709C210.748 421.454 210.78 421.488 210.801 421.528C210.822 421.569 210.832 421.615 210.829 421.66C210.779 423 210.829 424.36 210.669 425.66C210.669 425.72 210.669 425.77 210.669 425.83C210.529 426.99 210.319 428.14 210.109 429.29H208.189C208.189 429.29 208.189 429.29 208.189 429.22C208.519 427.96 208.809 426.69 209.119 425.41C209.429 424.13 209.889 422.85 210.189 421.53C210.207 421.483 210.238 421.441 210.279 421.41C209.064 421.469 207.86 421.154 206.83 420.506C205.799 419.859 204.993 418.911 204.519 417.79C204.039 416.08 204.008 414.276 204.429 412.55C204.779 410.26 205.109 407.98 205.429 405.69C206.079 401.5 206.929 397.34 207.669 393.17C207.779 392.54 207.899 391.89 208.009 391.26C209.509 382.77 211.069 374.26 212.949 365.85C213.019 365.5 213.099 365.15 213.179 364.85C213.259 364.55 213.599 364.68 213.579 364.91C213.529 365.47 213.469 366.04 213.399 366.61C213.069 369.84 212.689 373.06 212.239 376.26C211.699 380.04 211.329 383.83 210.799 387.6C210.619 388.88 210.439 390.17 210.249 391.45C209.379 397.65 208.479 403.85 207.419 410.03C206.929 412.9 205.139 418.03 209.269 418.94C210.215 419.144 211.202 419.021 212.069 418.59C213.896 417.494 215.261 415.77 215.909 413.74C217.079 410.45 217.499 406.82 218.109 403.4C218.776 399.62 219.376 395.837 219.909 392.05C220.576 387.317 221.279 382.587 222.019 377.86L223.159 370.63L223.699 367.29C223.789 367 224.159 367 224.159 367.28Z" fill="#263238"/>
<path d="M125.4 397C130.045 396.951 134.667 396.329 139.16 395.15C141.24 394.61 143.29 393.95 145.32 393.28C147.338 392.723 149.227 391.775 150.88 390.49C154.01 387.79 155.47 383.54 156.82 379.77C158.311 375.522 159.517 371.179 160.43 366.77C160.43 366.55 160.8 366.62 160.81 366.83C160.916 371.823 160.282 376.803 158.93 381.61C157.81 385.69 156.3 390.25 153 393.11C149.53 396.11 144.82 397.17 140.38 397.72C135.392 398.3 130.35 398.23 125.38 397.51C125.312 397.507 125.249 397.478 125.203 397.428C125.157 397.379 125.132 397.313 125.135 397.245C125.138 397.178 125.167 397.114 125.217 397.068C125.266 397.022 125.332 396.997 125.4 397V397Z" fill="#263238"/>
<path d="M117.66 366.83C117.42 373.083 117.16 379.333 116.88 385.58C116.213 400.147 115.51 414.713 114.77 429.28H112.68C113.626 414.68 114.626 400.09 115.68 385.51C116.146 379.277 116.62 373.047 117.1 366.82C117.1 366.783 117.108 366.747 117.123 366.713C117.138 366.679 117.159 366.649 117.185 366.623C117.212 366.598 117.243 366.578 117.277 366.564C117.311 366.551 117.348 366.544 117.385 366.545C117.421 366.546 117.458 366.554 117.491 366.568C117.525 366.583 117.556 366.604 117.581 366.631C117.607 366.657 117.627 366.688 117.64 366.722C117.654 366.757 117.66 366.793 117.66 366.83V366.83Z" fill="#263238"/>
<path d="M243.609 403.25L92.1992 391.77C92.1992 391.77 122.659 271.05 182.809 226.67C198.179 215.33 215.009 222.61 222.589 231.08C241.829 252.61 244.059 402.77 243.609 403.25Z" fill="#038C3E"/>
<path d="M175.589 280.86C175.13 280.816 174.687 280.661 174.299 280.41C173.94 280.186 173.647 279.871 173.45 279.497C173.254 279.123 173.16 278.702 173.179 278.28C173.174 277.812 173.064 277.351 172.856 276.932C172.648 276.512 172.349 276.145 171.98 275.857C171.612 275.569 171.183 275.367 170.726 275.268C170.269 275.168 169.795 275.172 169.339 275.28C168.801 275.358 168.267 275.464 167.739 275.6C168.279 275.73 168.799 275.79 169.339 275.9C169.807 275.939 170.261 276.079 170.669 276.31C171.023 276.527 171.316 276.83 171.522 277.19C171.728 277.549 171.841 277.955 171.849 278.37C171.851 279.011 172.041 279.638 172.397 280.172C172.753 280.705 173.258 281.122 173.849 281.37C174.399 281.599 175.003 281.664 175.589 281.56C176.139 281.43 176.649 281.37 177.159 281.23C176.644 281.074 176.12 280.95 175.589 280.86V280.86ZM234.539 283.86C234.081 283.811 233.639 283.657 233.249 283.41C232.893 283.183 232.602 282.868 232.406 282.494C232.209 282.12 232.114 281.702 232.129 281.28C232.113 280.63 231.906 280 231.535 279.466C231.163 278.933 230.643 278.52 230.039 278.28C229.478 278.096 228.878 278.061 228.299 278.18C227.757 278.261 227.22 278.371 226.689 278.51C227.239 278.63 227.749 278.7 228.299 278.8C228.763 278.845 229.212 278.985 229.619 279.21C229.974 279.428 230.268 279.732 230.474 280.094C230.681 280.456 230.792 280.864 230.799 281.28C230.799 281.922 230.989 282.549 231.345 283.083C231.701 283.617 232.207 284.033 232.799 284.28C233.348 284.515 233.953 284.581 234.539 284.47C235.089 284.34 235.599 284.28 236.119 284.15C235.601 284.007 235.073 283.9 234.539 283.83V283.86ZM206.199 383.77C205.733 383.729 205.283 383.575 204.889 383.32C204.532 383.093 204.24 382.778 204.04 382.404C203.84 382.031 203.74 381.613 203.749 381.19C203.748 380.537 203.547 379.899 203.173 379.363C202.8 378.827 202.272 378.418 201.659 378.19C201.102 378.004 200.505 377.97 199.929 378.09C199.419 378.19 198.869 378.26 198.359 378.39C198.876 378.527 199.4 378.63 199.929 378.7C200.39 378.75 200.836 378.893 201.239 379.12C201.605 379.328 201.91 379.627 202.125 379.988C202.341 380.349 202.459 380.76 202.469 381.18C202.459 381.824 202.644 382.456 203.001 382.992C203.359 383.528 203.871 383.942 204.469 384.18C205.026 384.424 205.643 384.494 206.239 384.38C206.749 384.26 207.239 384.18 207.819 384.06C207.229 383.93 206.709 383.87 206.199 383.77ZM203.499 234C203.025 233.967 202.567 233.812 202.169 233.55C201.824 233.315 201.541 232.999 201.346 232.629C201.151 232.26 201.049 231.848 201.049 231.43C201.046 230.79 200.846 230.166 200.478 229.642C200.11 229.119 199.591 228.72 198.989 228.5C198.426 228.279 197.809 228.234 197.219 228.37C196.699 228.47 196.159 228.54 195.639 228.69C196.159 228.82 196.699 228.88 197.219 229.02C197.683 229.049 198.134 229.183 198.539 229.41C198.899 229.621 199.2 229.919 199.413 230.278C199.627 230.636 199.746 231.043 199.759 231.46C199.767 232.1 199.96 232.724 200.315 233.256C200.67 233.789 201.172 234.207 201.759 234.46C202.326 234.679 202.943 234.734 203.539 234.62C204.069 234.544 204.594 234.433 205.109 234.29C204.579 234.163 204.041 234.066 203.499 234V234ZM163.999 370.52C163.533 370.47 163.083 370.32 162.679 370.08C162.326 369.851 162.037 369.534 161.841 369.161C161.645 368.788 161.548 368.371 161.559 367.95C161.554 367.298 161.351 366.662 160.978 366.127C160.605 365.592 160.079 365.181 159.469 364.95C158.907 364.755 158.304 364.71 157.719 364.82C157.179 364.95 156.659 365.01 156.149 365.15C156.666 365.285 157.19 365.388 157.719 365.46C158.191 365.487 158.648 365.631 159.049 365.88C159.411 366.091 159.713 366.391 159.927 366.751C160.14 367.112 160.258 367.521 160.269 367.94C160.26 368.584 160.446 369.215 160.803 369.751C161.16 370.286 161.672 370.701 162.269 370.94C162.827 371.167 163.439 371.226 164.029 371.11C164.549 371.01 165.029 370.94 165.609 370.78C164.999 370.69 164.499 370.62 163.999 370.52ZM110.789 384.61C110.323 384.56 109.873 384.41 109.469 384.17C109.118 383.938 108.831 383.622 108.635 383.249C108.439 382.877 108.341 382.461 108.349 382.04C108.346 381.387 108.145 380.75 107.772 380.215C107.398 379.679 106.871 379.269 106.259 379.04C105.701 378.846 105.101 378.801 104.519 378.91C103.969 379.04 103.459 379.1 102.939 379.24C103.458 379.38 103.986 379.483 104.519 379.55C104.987 379.583 105.439 379.727 105.839 379.97C106.203 380.18 106.506 380.48 106.721 380.841C106.937 381.201 107.056 381.61 107.069 382.03C107.059 382.674 107.244 383.306 107.601 383.842C107.959 384.378 108.471 384.792 109.069 385.03C109.627 385.257 110.239 385.316 110.829 385.2C111.362 385.121 111.89 385.01 112.409 384.87C111.799 384.78 111.289 384.72 110.769 384.61H110.789ZM190.169 323.37C189.714 323.326 189.273 323.183 188.879 322.95C188.526 322.723 188.237 322.408 188.041 322.037C187.845 321.666 187.748 321.25 187.759 320.83C187.751 320.178 187.547 319.544 187.175 319.009C186.802 318.475 186.278 318.064 185.669 317.83C185.116 317.611 184.509 317.566 183.929 317.7C183.379 317.83 182.869 317.89 182.319 318.02C182.848 318.165 183.386 318.272 183.929 318.34C184.392 318.374 184.842 318.507 185.249 318.73C185.605 318.945 185.901 319.247 186.109 319.607C186.317 319.967 186.431 320.374 186.439 320.79C186.443 321.431 186.635 322.056 186.99 322.589C187.346 323.123 187.849 323.54 188.439 323.79C188.99 324.019 189.597 324.075 190.179 323.95C190.721 323.876 191.259 323.772 191.789 323.64C191.209 323.56 190.699 323.5 190.149 323.37H190.169ZM230.299 353.06C229.838 353.024 229.393 352.869 229.009 352.61C228.651 352.387 228.358 352.074 228.16 351.701C227.962 351.329 227.865 350.911 227.879 350.49C227.871 349.838 227.667 349.204 227.295 348.669C226.922 348.135 226.398 347.724 225.789 347.49C225.217 347.307 224.607 347.276 224.019 347.4C223.509 347.49 223.019 347.56 222.449 347.68C222.96 347.816 223.477 347.923 223.999 348C224.476 348.03 224.939 348.174 225.349 348.42C225.709 348.631 226.008 348.932 226.216 349.293C226.425 349.654 226.536 350.063 226.539 350.48C226.539 351.122 226.729 351.749 227.085 352.283C227.441 352.817 227.947 353.233 228.539 353.48C229.101 353.717 229.72 353.783 230.319 353.67C230.859 353.54 231.379 353.48 231.889 353.35C231.361 353.21 230.823 353.113 230.279 353.06H230.299ZM132.899 327.54C132.434 327.507 131.986 327.352 131.599 327.09C131.244 326.865 130.954 326.551 130.757 326.179C130.561 325.807 130.465 325.39 130.479 324.97C130.472 324.318 130.269 323.683 129.896 323.148C129.524 322.613 128.999 322.203 128.389 321.97C127.818 321.785 127.208 321.75 126.619 321.87C126.099 321.97 125.619 322.03 125.039 322.16C125.559 322.297 126.087 322.404 126.619 322.48C127.096 322.513 127.558 322.657 127.969 322.9C128.329 323.111 128.628 323.412 128.836 323.773C129.045 324.134 129.156 324.543 129.159 324.96C129.159 325.602 129.349 326.229 129.705 326.763C130.061 327.297 130.567 327.713 131.159 327.96C131.721 328.197 132.34 328.263 132.939 328.15C133.479 328.02 133.999 327.96 134.509 327.83C133.974 327.694 133.429 327.597 132.879 327.54H132.899ZM227.359 321.78C226.994 322.079 226.577 322.31 226.129 322.46C225.722 322.56 225.296 322.555 224.89 322.447C224.485 322.338 224.113 322.13 223.809 321.84C223.36 321.387 222.788 321.077 222.164 320.947C221.54 320.817 220.892 320.874 220.299 321.11C219.741 321.337 219.263 321.727 218.929 322.23C218.629 322.68 218.309 323.1 218.019 323.58C218.509 323.29 218.929 322.97 219.379 322.68C219.738 322.393 220.154 322.185 220.599 322.07C221.014 321.989 221.442 322.011 221.846 322.133C222.25 322.255 222.619 322.474 222.919 322.77C223.385 323.217 223.974 323.515 224.61 323.626C225.246 323.736 225.9 323.654 226.489 323.39C227.024 323.126 227.479 322.726 227.809 322.23C228.089 321.78 228.419 321.37 228.669 320.88C228.199 321.17 227.789 321.49 227.339 321.78H227.359ZM173.699 241.41C173.599 240.86 173.529 240.34 173.409 239.83C173.272 240.35 173.161 240.878 173.079 241.41C173.04 241.874 172.9 242.325 172.669 242.73C172.459 243.09 172.159 243.389 171.797 243.598C171.436 243.807 171.027 243.918 170.609 243.92C169.969 243.925 169.344 244.117 168.811 244.472C168.278 244.828 167.861 245.331 167.609 245.92C167.381 246.477 167.315 247.087 167.419 247.68C167.549 248.2 167.609 248.68 167.749 249.26C167.909 248.71 167.969 248.2 168.069 247.68C168.103 247.211 168.258 246.76 168.519 246.37C168.747 246.014 169.063 245.723 169.436 245.525C169.809 245.327 170.227 245.229 170.649 245.24C171.294 245.227 171.92 245.021 172.445 244.648C172.971 244.275 173.373 243.754 173.599 243.15C173.795 242.591 173.83 241.988 173.699 241.41ZM161.149 334.1C161.075 333.571 160.968 333.046 160.829 332.53C160.709 333.04 160.629 333.53 160.509 334.1C160.478 334.563 160.345 335.014 160.119 335.42C159.91 335.781 159.609 336.081 159.248 336.289C158.887 336.498 158.477 336.609 158.059 336.61C157.42 336.619 156.797 336.812 156.264 337.167C155.732 337.522 155.314 338.023 155.059 338.61C154.854 339.166 154.799 339.766 154.899 340.35C154.974 340.888 155.077 341.423 155.209 341.95C155.358 341.425 155.468 340.89 155.539 340.35C155.578 339.889 155.733 339.445 155.989 339.06C156.212 338.701 156.525 338.408 156.897 338.209C157.27 338.011 157.688 337.914 158.109 337.93C158.76 337.917 159.393 337.712 159.927 337.34C160.461 336.968 160.872 336.446 161.109 335.84C161.285 335.275 161.299 334.672 161.149 334.1ZM143.799 281C143.729 280.471 143.625 279.946 143.489 279.43C143.359 279.94 143.289 280.43 143.159 281C143.131 281.464 142.998 281.915 142.769 282.32C142.562 282.68 142.263 282.979 141.903 283.188C141.543 283.397 141.135 283.508 140.719 283.51C140.08 283.521 139.458 283.716 138.926 284.07C138.395 284.425 137.976 284.924 137.719 285.51C137.515 286.069 137.459 286.673 137.559 287.26C137.637 287.799 137.744 288.333 137.879 288.86C138.023 288.334 138.133 287.8 138.209 287.26C138.241 286.797 138.397 286.352 138.659 285.97C138.882 285.611 139.195 285.318 139.567 285.119C139.94 284.921 140.358 284.824 140.779 284.84C141.43 284.827 142.063 284.622 142.597 284.25C143.131 283.878 143.542 283.356 143.779 282.75C143.956 282.181 143.963 281.573 143.799 281V281ZM230.259 395.13C230.185 394.597 230.078 394.07 229.939 393.55C229.819 394.07 229.739 394.55 229.619 395.13C229.585 395.593 229.452 396.043 229.229 396.45C229.018 396.81 228.718 397.108 228.357 397.317C227.995 397.525 227.586 397.637 227.169 397.64C226.53 397.648 225.906 397.841 225.373 398.196C224.841 398.551 224.423 399.052 224.169 399.64C223.965 400.196 223.91 400.796 224.009 401.38C224.009 401.51 224.009 401.65 224.079 401.78H224.579C224.579 401.63 224.629 401.49 224.649 401.34C224.689 400.879 224.844 400.436 225.099 400.05C225.331 399.71 225.645 399.436 226.013 399.252C226.38 399.068 226.789 398.981 227.199 399C227.85 398.987 228.483 398.782 229.017 398.41C229.551 398.038 229.962 397.516 230.199 396.91C230.389 396.335 230.41 395.717 230.259 395.13V395.13ZM208.219 295C208.089 294.48 208.029 294 207.899 293.42C207.762 293.94 207.655 294.467 207.579 295C207.542 295.476 207.398 295.937 207.159 296.35C206.95 296.712 206.65 297.013 206.289 297.224C205.928 297.434 205.518 297.547 205.099 297.55C204.455 297.539 203.823 297.725 203.287 298.082C202.751 298.439 202.337 298.951 202.099 299.55C201.856 300.093 201.8 300.701 201.939 301.28C202.039 301.83 202.099 302.34 202.229 302.86C202.368 302.34 202.475 301.813 202.549 301.28C202.609 300.827 202.762 300.391 202.999 300C203.224 299.644 203.538 299.354 203.91 299.158C204.282 298.961 204.699 298.865 205.119 298.88C205.771 298.873 206.406 298.67 206.941 298.297C207.476 297.924 207.887 297.399 208.119 296.79C208.297 296.21 208.332 295.596 208.219 295V295ZM140.619 388.88C140.499 388.33 140.429 387.82 140.299 387.31C140.16 387.826 140.053 388.35 139.979 388.88C139.956 389.349 139.811 389.804 139.559 390.2C139.355 390.563 139.057 390.864 138.696 391.074C138.336 391.283 137.926 391.392 137.509 391.39C136.869 391.395 136.244 391.587 135.711 391.942C135.178 392.298 134.761 392.801 134.509 393.39C134.301 393.896 134.236 394.449 134.319 394.99V395.17C134.319 395.25 134.319 395.35 134.369 395.43H134.899C134.899 395.35 134.899 395.27 134.969 395.19C134.965 395.15 134.965 395.11 134.969 395.07C134.999 394.642 135.136 394.229 135.369 393.87C135.592 393.511 135.905 393.218 136.277 393.019C136.65 392.821 137.068 392.724 137.489 392.74C138.143 392.738 138.78 392.537 139.316 392.164C139.852 391.79 140.262 391.262 140.489 390.65C140.699 390.077 140.744 389.457 140.619 388.86V388.88ZM110.769 342.5C110.649 341.95 110.579 341.44 110.449 340.92C110.311 341.44 110.204 341.967 110.129 342.5C110.104 342.969 109.96 343.423 109.709 343.82C109.509 344.176 109.219 344.472 108.868 344.681C108.517 344.89 108.118 345.003 107.709 345.01C107.586 345 107.463 345 107.339 345.01L106.799 346.46C107.098 346.341 107.418 346.286 107.739 346.3C108.393 346.298 109.03 346.097 109.566 345.724C110.102 345.35 110.511 344.822 110.739 344.21C110.901 343.653 110.911 343.062 110.769 342.5V342.5ZM204.649 265.09C204.292 265.386 203.871 265.594 203.419 265.7C203.011 265.791 202.585 265.773 202.185 265.649C201.785 265.524 201.424 265.297 201.139 264.99C200.672 264.55 200.084 264.257 199.451 264.149C198.818 264.04 198.167 264.121 197.579 264.38C197.035 264.632 196.574 265.035 196.249 265.54C195.959 265.99 195.609 266.41 195.349 266.89C195.829 266.6 196.249 266.28 196.699 265.99C197.041 265.67 197.462 265.449 197.919 265.35C198.323 265.235 198.75 265.229 199.157 265.33C199.564 265.432 199.937 265.639 200.239 265.93C200.682 266.392 201.255 266.708 201.881 266.839C202.508 266.969 203.159 266.907 203.749 266.66C204.308 266.427 204.787 266.038 205.129 265.54C205.429 265.09 205.739 264.67 206.009 264.18C205.519 264.48 205.099 264.8 204.649 265.09V265.09ZM228.999 244.64L228.699 244.72C228.291 244.815 227.865 244.801 227.465 244.678C227.064 244.555 226.704 244.328 226.419 244.02C225.95 243.579 225.361 243.286 224.726 243.178C224.091 243.069 223.439 243.15 222.849 243.41C222.306 243.66 221.847 244.063 221.529 244.57C221.229 245.02 220.889 245.44 220.629 245.92C221.109 245.63 221.529 245.31 221.979 245.02C222.321 244.7 222.742 244.479 223.199 244.38C223.602 244.266 224.028 244.259 224.435 244.359C224.841 244.459 225.215 244.662 225.519 244.95C225.961 245.411 226.531 245.729 227.155 245.861C227.78 245.993 228.429 245.933 229.019 245.69C229.11 245.66 229.198 245.62 229.279 245.57C229.219 245.26 229.129 245 228.999 244.64ZM161.999 303.73C161.658 304.044 161.235 304.255 160.779 304.34C160.37 304.436 159.942 304.422 159.54 304.299C159.138 304.176 158.775 303.949 158.489 303.64C158.022 303.196 157.433 302.9 156.797 302.792C156.162 302.683 155.508 302.766 154.919 303.03C154.377 303.276 153.918 303.676 153.599 304.18C153.319 304.63 152.959 305.05 152.699 305.54C153.179 305.24 153.599 304.92 154.049 304.63C154.398 304.315 154.822 304.095 155.279 303.99C155.682 303.876 156.107 303.87 156.512 303.972C156.917 304.073 157.289 304.28 157.589 304.57C158.031 305.031 158.601 305.349 159.225 305.481C159.85 305.613 160.499 305.553 161.089 305.31C161.65 305.071 162.132 304.68 162.479 304.18C162.769 303.73 163.089 303.31 163.349 302.83C162.859 303.12 162.439 303.44 161.999 303.73ZM133.099 360.65C132.609 361.085 131.972 361.32 131.316 361.307C130.66 361.294 130.033 361.034 129.559 360.58C129.103 360.128 128.521 359.825 127.889 359.711C127.257 359.597 126.605 359.677 126.019 359.94C125.488 360.203 125.033 360.599 124.699 361.09C124.366 361.523 124.062 361.977 123.789 362.45C124.265 362.18 124.719 361.876 125.149 361.54C125.499 361.231 125.917 361.012 126.369 360.9C126.772 360.801 127.192 360.804 127.593 360.911C127.993 361.018 128.36 361.224 128.659 361.51C129.109 361.968 129.684 362.283 130.312 362.416C130.939 362.549 131.592 362.495 132.189 362.26C132.736 362.012 133.206 361.622 133.549 361.13C133.829 360.68 134.189 360.26 134.449 359.78C133.999 360 133.549 360.36 133.099 360.65ZM179.749 394.42C179.259 394.855 178.622 395.09 177.966 395.077C177.31 395.064 176.683 394.804 176.209 394.35C175.752 393.9 175.17 393.598 174.538 393.483C173.907 393.369 173.255 393.448 172.669 393.71C172.14 393.976 171.686 394.372 171.349 394.86C171.021 395.294 170.72 395.748 170.449 396.22C170.92 395.951 171.371 395.651 171.799 395.32C172.143 395.004 172.564 394.783 173.019 394.68C173.421 394.579 173.841 394.581 174.241 394.686C174.642 394.791 175.009 394.995 175.309 395.28C175.759 395.738 176.334 396.053 176.962 396.186C177.589 396.319 178.242 396.265 178.839 396.03C179.385 395.786 179.855 395.399 180.199 394.91C180.479 394.46 180.839 394.04 181.099 393.55C180.619 393.8 180.199 394.13 179.749 394.42V394.42ZM197.999 354.77C197.636 355.073 197.203 355.283 196.739 355.38C196.331 355.463 195.909 355.443 195.51 355.321C195.112 355.198 194.751 354.978 194.459 354.68C193.999 354.221 193.408 353.915 192.767 353.804C192.127 353.693 191.467 353.782 190.879 354.06C190.344 354.319 189.891 354.72 189.569 355.22C189.269 355.64 188.959 356.05 188.659 356.54C189.132 356.27 189.587 355.97 190.019 355.64C190.389 355.36 190.801 355.141 191.239 354.99C191.647 354.89 192.073 354.895 192.479 355.003C192.884 355.111 193.256 355.32 193.559 355.61C193.883 355.952 194.279 356.217 194.718 356.385C195.157 356.554 195.629 356.622 196.098 356.585C196.567 356.547 197.021 356.405 197.428 356.169C197.835 355.933 198.184 355.609 198.449 355.22C198.729 354.77 199.059 354.35 199.309 353.87C198.899 354.13 198.489 354.45 197.999 354.77ZM242.999 373.07C242.538 372.961 242.115 372.725 241.779 372.39C241.318 371.946 240.734 371.65 240.103 371.541C239.472 371.433 238.823 371.516 238.239 371.78C237.691 372.018 237.23 372.419 236.919 372.93C236.59 373.363 236.289 373.817 236.019 374.29C236.499 373.99 236.919 373.68 237.369 373.38C237.725 373.068 238.145 372.839 238.599 372.71C239 372.607 239.42 372.608 239.82 372.715C240.219 372.822 240.584 373.03 240.879 373.32C241.455 373.903 242.222 374.259 243.039 374.32C243.049 373.88 242.999 373.48 242.999 373.07Z" fill="white"/>
<path d="M218.5 252.44C209.67 252.57 198.09 236.59 194.68 224.96C194.46 224.16 203.68 196.36 204.94 190.66C205.2 189.48 238.83 207.23 238.83 207.23C238.83 207.23 232.68 218.4 230.55 228.35C230.38 229.19 227 252.31 218.5 252.44Z" fill="#D3766A"/>
<path d="M238.828 207.22C238.828 207.22 232.678 218.4 230.538 228.35C230.538 228.55 230.288 229.99 229.868 232.09C213.208 226.77 204.678 213.95 200.648 205.19C202.648 198.89 204.438 192.97 204.938 190.66C205.198 189.49 238.828 207.22 238.828 207.22Z" fill="#263238"/>
<path d="M197.669 152.64C192.669 165.28 196.669 203.2 205.189 212.25C217.599 225.38 239.389 228.25 250.929 213C262.109 198.23 256.129 148.9 246.419 140.52C232.129 128.18 204.999 134 197.669 152.64Z" fill="#D3766A"/>
<path d="M230 173.18C228.94 173.65 227.88 173.92 226.79 174.29C225.55 174.7 224.61 175.15 223.3 174.79C222.941 174.649 222.64 174.393 222.442 174.062C222.245 173.73 222.163 173.343 222.21 172.96C222.5 171.33 223.89 170.45 225.35 169.9C226.81 169.284 228.448 169.238 229.94 169.77C230.271 169.912 230.554 170.147 230.755 170.446C230.956 170.745 231.066 171.096 231.072 171.456C231.079 171.816 230.981 172.17 230.791 172.476C230.6 172.782 230.326 173.027 230 173.18Z" fill="#263238"/>
<path d="M230.91 178.64C230.91 178.55 230.73 178.79 230.74 178.89C231.19 181.43 231.27 184.4 229.09 185.58C229.02 185.58 229.09 185.74 229.09 185.72C231.88 184.92 231.74 181 230.91 178.64Z" fill="#263238"/>
<path d="M228.249 176.31C224.119 176.58 224.969 184.84 228.799 184.58C232.629 184.32 231.719 176.08 228.249 176.31Z" fill="#263238"/>
<path d="M245.649 176.76C245.649 176.66 245.859 176.86 245.869 176.97C246.049 179.54 246.699 182.44 249.099 183.05C249.169 183.05 249.179 183.2 249.099 183.2C246.229 183.09 245.409 179.22 245.649 176.76Z" fill="#263238"/>
<path d="M247.66 173.86C251.74 173.12 252.91 181.34 249.13 182.02C245.35 182.7 244.24 174.48 247.66 173.86Z" fill="#263238"/>
<path d="M250.239 168.7C249.079 168.63 248.009 168.37 246.869 168.19C245.579 167.98 244.529 167.94 243.529 167.01C243.278 166.716 243.13 166.347 243.108 165.961C243.087 165.574 243.192 165.191 243.409 164.87C244.409 163.55 246.079 163.42 247.639 163.61C249.218 163.744 250.693 164.456 251.779 165.61C252.016 165.891 252.165 166.235 252.209 166.599C252.253 166.964 252.189 167.333 252.025 167.662C251.861 167.99 251.605 168.264 251.288 168.448C250.97 168.633 250.606 168.72 250.239 168.7V168.7Z" fill="#263238"/>
<path d="M230.189 201.86C230.869 202.39 231.559 203.15 232.499 203.13C233.448 203.02 234.362 202.706 235.179 202.21C235.196 202.198 235.216 202.191 235.237 202.192C235.258 202.194 235.278 202.202 235.294 202.216C235.309 202.23 235.319 202.25 235.322 202.27C235.325 202.291 235.32 202.312 235.309 202.33C234.994 202.871 234.538 203.316 233.991 203.618C233.443 203.921 232.824 204.07 232.199 204.05C231.671 203.963 231.181 203.721 230.79 203.357C230.399 202.992 230.123 202.52 229.999 202C229.899 201.85 230.089 201.78 230.189 201.86Z" fill="#263238"/>
<path d="M232.09 193.92C232.842 194.865 233.783 195.644 234.851 196.207C235.92 196.769 237.095 197.104 238.3 197.19C239.353 197.285 240.414 197.224 241.45 197.01C241.65 196.989 241.848 196.946 242.04 196.88L242.59 196.74C242.724 196.699 242.842 196.615 242.925 196.502C243.007 196.388 243.051 196.251 243.05 196.11V196.11C243.059 196.027 243.059 195.943 243.05 195.86V195.63C242.9 193.63 242.4 190.63 242.4 190.63C243.16 190.92 247 192.19 246.83 191.17C245.45 182.7 243.9 173.29 240.73 165.17C240.707 165.118 240.667 165.076 240.617 165.05C240.566 165.025 240.508 165.018 240.453 165.031C240.398 165.045 240.35 165.077 240.316 165.122C240.282 165.168 240.266 165.224 240.27 165.28C241.27 173.47 243.73 181.43 244.88 189.63C243.512 189.158 242.084 188.882 240.64 188.81C240.37 188.92 241.71 194.54 241.71 195.44C241.712 195.47 241.712 195.5 241.71 195.53C238.44 196.3 235.85 195.53 232.4 193.67C232.1 193.54 231.91 193.73 232.09 193.92Z" fill="#263238"/>
<path d="M240.189 196.14C239.249 197.654 237.938 198.904 236.379 199.77C235.518 200.214 234.539 200.378 233.579 200.24C231.479 199.91 231.229 198.04 231.439 196.4C231.56 195.527 231.782 194.672 232.099 193.85C234.484 195.454 237.318 196.257 240.189 196.14V196.14Z" fill="#263238"/>
<path d="M236.379 199.77C235.518 200.214 234.539 200.378 233.579 200.24C231.479 199.91 231.229 198.04 231.439 196.4C233.649 196.4 235.999 197.66 236.379 199.77Z" fill="#FF97B8"/>
<path d="M195.159 187C202.249 185 205.789 161.16 205.789 161.16C205.789 161.16 205.789 171.25 207.639 171C209.489 170.75 217.239 157 218.089 147.2C218.089 147.2 227.089 153.26 236.089 155.91C245.089 158.56 255.009 157.91 255.009 156.41C255.009 151.87 250.819 140 244.639 135.81C237.509 130.99 227.339 126.33 212.639 131.99C197.939 137.65 194.199 147 192.049 154.36C189.899 161.72 192.559 187.7 195.159 187Z" fill="#263238"/>
<path d="M203.74 185.67C203.74 185.67 196.08 173 190.38 175.67C184.68 178.34 189.88 196.28 196.17 199.12C196.951 199.534 197.807 199.786 198.687 199.862C199.567 199.937 200.454 199.835 201.294 199.561C202.134 199.286 202.91 198.845 203.576 198.265C204.242 197.684 204.784 196.975 205.17 196.18L203.74 185.67Z" fill="#D3766A"/>
<path d="M191.999 180.76C191.899 180.76 191.869 180.89 191.999 180.93C196.399 183.06 198.499 187.42 199.879 191.87C198.639 190.11 196.879 189.07 194.519 190.52C194.399 190.6 194.519 190.79 194.629 190.77C195.441 190.573 196.294 190.63 197.072 190.934C197.85 191.238 198.516 191.775 198.979 192.47C199.737 193.646 200.368 194.9 200.859 196.21C201.049 196.62 201.789 196.46 201.669 195.98V195.87C202.099 190.12 198.159 181.76 191.999 180.76Z" fill="#263238"/>
<path opacity="0.1" d="M236.839 132.62C236.839 132.62 216.789 136 206.999 143.8C197.209 151.6 193.849 177.9 188.619 173.56C186.319 171.64 185.379 169.06 184.799 164.83C186.799 157.26 191.189 145.64 198.489 138.04C205.329 130.93 216.099 128.11 227.299 128.04C230.604 129.292 233.795 130.824 236.839 132.62V132.62Z" fill="black"/>
<path d="M188.489 189.37C189.739 182.37 198.879 164.37 207.489 154.37C216.099 144.37 238.829 140.44 241.899 140.94C249.329 142.17 251.619 144.71 252.899 144.16C254.179 143.61 247.049 137.16 245.079 135.7C243.109 134.24 237.769 130.64 234.509 130.37C231.249 130.1 210.999 130 202.809 137.73C194.619 145.46 181.759 168.35 182.999 174.73C183.289 176.25 185.149 177.4 185.549 179.56C186.079 182.38 186.319 185.56 186.939 187.56C187.439 189.19 188.379 190 188.489 189.37Z" fill="#038C3E"/>
<path d="M209.759 149.72C208.154 148.485 206.655 147.117 205.279 145.63C203.866 144.153 202.631 142.515 201.599 140.75C201.596 140.732 201.588 140.715 201.577 140.701C201.566 140.686 201.552 140.674 201.535 140.666C201.519 140.658 201.501 140.654 201.483 140.653C201.464 140.653 201.446 140.657 201.43 140.665C201.413 140.673 201.399 140.684 201.387 140.699C201.376 140.713 201.368 140.73 201.364 140.748C201.36 140.765 201.36 140.784 201.365 140.802C201.369 140.819 201.377 140.836 201.389 140.85C202.172 142.809 203.269 144.626 204.639 146.23C206.026 147.802 207.695 149.101 209.559 150.06C209.603 150.077 209.652 150.078 209.697 150.062C209.741 150.046 209.779 150.015 209.803 149.975C209.827 149.934 209.836 149.886 209.828 149.839C209.82 149.793 209.795 149.75 209.759 149.72V149.72Z" fill="#263238"/>
<path d="M189.169 182.34C189.029 181.82 188.739 181.34 188.549 180.82C188.328 180.235 188.17 179.628 188.079 179.01C188.061 177.835 187.917 176.664 187.649 175.52C187.277 174.631 186.807 173.785 186.249 173C185.548 172.157 185.166 171.096 185.169 170C185.169 169.85 184.949 169.82 184.939 170C184.699 172.14 185.939 173.8 186.709 175.69C187.189 176.89 187.019 178.19 187.289 179.44C187.447 180.623 187.988 181.722 188.829 182.57C188.999 182.64 189.219 182.53 189.169 182.34Z" fill="#263238"/>
<path d="M192.4 175C191.783 174.163 191.209 173.295 190.68 172.4C190.205 171.504 189.794 170.575 189.45 169.62C189.1 168.68 188.83 167.71 188.5 166.77C188.11 165.65 187.59 164.57 187.25 163.44C187.25 163.29 186.99 163.44 187.04 163.53C187.38 164.71 187.53 165.94 187.83 167.13C188.099 168.15 188.433 169.152 188.83 170.13C189.2 171.075 189.666 171.98 190.22 172.83C190.744 173.711 191.442 174.476 192.27 175.08C192.28 175.097 192.297 175.11 192.317 175.114C192.337 175.119 192.357 175.116 192.375 175.105C192.392 175.095 192.404 175.078 192.409 175.058C192.414 175.038 192.41 175.017 192.4 175V175Z" fill="#263238"/>
<path d="M195.68 168.41C194.341 167.005 193.209 165.416 192.32 163.69C191.47 162 190.71 160.25 189.98 158.5C189.98 158.39 189.72 158.43 189.76 158.57C190.145 160.502 190.766 162.38 191.61 164.16C192.034 165.02 192.554 165.828 193.16 166.57C193.863 167.326 194.652 167.997 195.51 168.57C195.62 168.66 195.78 168.52 195.68 168.41Z" fill="#263238"/>
<path d="M199.169 162.14C198.484 161.56 197.917 160.854 197.499 160.06C196.979 159.2 196.499 158.34 195.999 157.46C195.499 156.58 195.059 155.78 194.599 154.94C194.079 154.113 193.739 153.186 193.599 152.22C193.592 152.195 193.576 152.174 193.556 152.158C193.535 152.143 193.51 152.134 193.484 152.134C193.458 152.134 193.433 152.143 193.412 152.158C193.391 152.174 193.376 152.195 193.369 152.22C193.348 153.188 193.521 154.15 193.879 155.05C194.227 156.059 194.662 157.036 195.179 157.97C195.687 158.887 196.255 159.769 196.879 160.61C197.383 161.407 198.114 162.034 198.979 162.41C199.169 162.47 199.319 162.25 199.169 162.14Z" fill="#263238"/>
<path d="M202.058 154C201.478 153.29 200.898 152.58 200.368 151.83C199.838 151.08 199.368 150.31 198.888 149.53C198.408 148.75 197.888 147.89 197.418 147.05C197.413 147.036 197.404 147.024 197.393 147.013C197.383 147.003 197.37 146.995 197.356 146.989C197.342 146.984 197.327 146.981 197.312 146.981C197.297 146.981 197.282 146.984 197.268 146.99C197.255 146.996 197.242 147.005 197.232 147.015C197.221 147.026 197.213 147.039 197.207 147.053C197.202 147.067 197.199 147.082 197.199 147.097C197.199 147.112 197.203 147.126 197.208 147.14C197.472 148.061 197.806 148.961 198.208 149.83C198.641 150.678 199.129 151.496 199.668 152.28C200.193 153.058 200.764 153.802 201.378 154.51C201.96 155.252 202.68 155.874 203.498 156.34C203.528 156.353 203.56 156.356 203.592 156.35C203.623 156.344 203.652 156.329 203.674 156.306C203.697 156.284 203.712 156.255 203.718 156.223C203.724 156.192 203.721 156.16 203.708 156.13C203.23 155.368 202.677 154.654 202.058 154V154Z" fill="#263238"/>
<path d="M215.569 146.3C214.417 144.379 213.033 142.605 211.449 141.02C209.92 139.425 208.224 138 206.389 136.77C206.279 136.7 206.119 136.83 206.219 136.94C209.219 140.13 212.399 143.21 215.389 146.44C215.398 146.452 215.41 146.462 215.423 146.469C215.436 146.477 215.45 146.482 215.465 146.483C215.48 146.485 215.495 146.484 215.509 146.48C215.524 146.476 215.537 146.469 215.549 146.46C215.561 146.451 215.571 146.44 215.578 146.427C215.586 146.414 215.59 146.399 215.592 146.384C215.594 146.37 215.593 146.354 215.589 146.34C215.585 146.326 215.578 146.312 215.569 146.3V146.3Z" fill="#263238"/>
<path d="M220.459 140.74C219.842 139.822 219.124 138.977 218.319 138.22C216.583 136.685 214.685 135.344 212.659 134.22C212.529 134.15 212.389 134.31 212.509 134.41C214.209 135.81 215.919 137.19 217.509 138.69C218.317 139.418 219.081 140.192 219.799 141.01C220.519 141.84 221.029 142.8 221.699 143.65C221.711 143.666 221.728 143.677 221.747 143.682C221.767 143.687 221.787 143.685 221.806 143.677C221.824 143.669 221.839 143.655 221.849 143.638C221.859 143.62 221.862 143.6 221.859 143.58C221.581 142.551 221.105 141.587 220.459 140.74V140.74Z" fill="#263238"/>
<path d="M226.6 138.6C226.023 137.702 225.352 136.867 224.6 136.11C223.21 134.659 221.583 133.456 219.79 132.55C219.67 132.49 219.57 132.68 219.67 132.76C221.274 133.96 222.77 135.298 224.14 136.76C224.83 137.5 225.48 138.27 226.14 139.03C226.8 139.79 227.32 140.71 228.05 141.4C228.11 141.45 228.19 141.4 228.17 141.31C227.733 140.359 227.207 139.452 226.6 138.6V138.6Z" fill="#263238"/>
<path d="M231.199 135.55C230.529 134.88 229.819 134.23 229.109 133.55C228.43 132.889 227.655 132.336 226.809 131.91C226.679 131.86 226.609 132.03 226.699 132.12C228.009 133.41 229.309 134.74 230.589 136.06C231.697 137.363 232.663 138.781 233.469 140.29C233.477 140.307 233.491 140.321 233.509 140.327C233.527 140.334 233.547 140.333 233.564 140.325C233.581 140.317 233.594 140.302 233.601 140.285C233.607 140.267 233.607 140.247 233.599 140.23C233.283 138.466 232.447 136.836 231.199 135.55Z" fill="#263238"/>
<path d="M236.6 135C235.37 133.593 233.883 132.432 232.22 131.58C232.1 131.52 231.99 131.71 232.1 131.78C233.583 132.797 234.904 134.03 236.02 135.44C237.153 136.841 238.132 138.36 238.94 139.97C238.94 140.05 239.12 140.03 239.1 139.97C238.662 138.142 237.807 136.441 236.6 135Z" fill="#263238"/>
<path d="M243.169 138.86C243.028 138.474 242.865 138.096 242.679 137.73C242.296 136.993 241.84 136.296 241.319 135.65C240.214 134.372 238.988 133.203 237.659 132.16C237.539 132.06 237.399 132.25 237.509 132.35C238.781 133.392 239.922 134.584 240.909 135.9C241.391 136.535 241.829 137.204 242.219 137.9C242.409 138.24 242.569 138.6 242.729 138.96C242.859 139.307 243.019 139.642 243.209 139.96C243.219 139.979 243.234 139.994 243.253 140.005C243.271 140.016 243.292 140.022 243.314 140.022C243.335 140.022 243.356 140.016 243.375 140.005C243.393 139.994 243.408 139.979 243.419 139.96C243.396 139.582 243.311 139.211 243.169 138.86V138.86Z" fill="#263238"/>
<path d="M247.349 139.69C247.009 139.099 246.635 138.528 246.229 137.98C245.828 137.431 245.39 136.91 244.919 136.42C244.439 135.91 243.919 135.42 243.469 134.9C243.359 134.78 243.189 134.9 243.309 135.07C243.798 135.574 244.243 136.12 244.639 136.7C245.019 137.24 245.409 137.77 245.799 138.31L246.949 139.92C247.307 140.496 247.694 141.054 248.109 141.59C248.125 141.603 248.145 141.611 248.165 141.612C248.186 141.613 248.207 141.608 248.224 141.597C248.242 141.586 248.255 141.57 248.263 141.551C248.271 141.531 248.273 141.51 248.269 141.49C248.031 140.857 247.722 140.254 247.349 139.69V139.69Z" fill="#263238"/>
<path d="M172.409 262.52C177.779 293.52 195.199 354.04 211.829 369.28C224.189 380.61 290.319 384.58 299.199 385.67C305.819 386.49 306.849 330.67 299.819 329.5C292.609 328.31 242.309 321.5 237.329 319.59C232.349 317.68 210.499 277.83 196.329 256.25C178.369 229 167.999 237.14 172.409 262.52Z" fill="#D3766A"/>
<path d="M300.819 386.29C315.069 389.38 345.819 391.29 362.199 389.29C383.779 386.77 411.719 368.08 408.669 362.87C405.309 357.12 392.669 360.61 380.899 363.19C362.289 367.27 356.409 361.56 350.319 356.05C325.319 333.44 297.889 329.41 297.889 329.41C297.889 329.41 286.099 383.1 300.819 386.29Z" fill="#D3766A"/>
<path d="M349.148 359.85C342.858 354.15 367.018 359.85 373.918 353.07C380.818 346.29 371.918 342.07 362.728 341.01C330.998 337.24 325.168 323.88 303.278 328.17C281.388 332.46 349.148 359.85 349.148 359.85Z" fill="#D3766A"/>
<path d="M332.849 358.18C332.719 358.23 332.639 358.01 332.769 357.95C335.603 356.738 338.604 355.963 341.669 355.65C344.733 355.465 347.805 355.465 350.869 355.65C354.009 355.78 357.139 355.97 360.279 355.97C361.879 355.97 363.459 355.85 365.059 355.72C366.659 355.59 368.159 355.26 369.699 355.24C369.889 355.24 369.899 355.49 369.769 355.58C368.44 356.33 366.987 356.835 365.479 357.07C364.048 357.323 362.602 357.477 361.149 357.53C357.961 357.649 354.768 357.572 351.589 357.3C348.479 357.08 345.359 356.87 342.239 356.93" fill="#263238"/>
<path d="M240.889 320.46L255.669 322.46C260.589 323.12 265.519 323.8 270.429 324.51L285.189 326.6L292.569 327.6L296.249 328.13L298.089 328.39L299.009 328.52L299.859 328.62L299.459 328.69C301.71 327.798 304.06 327.18 306.459 326.85C308.825 326.498 311.22 326.381 313.609 326.5C318.367 326.819 323.045 327.889 327.469 329.67C331.859 331.39 336.049 333.42 340.369 335.01C342.508 335.823 344.7 336.491 346.929 337.01C349.169 337.53 351.459 337.92 353.749 338.31C358.378 338.974 362.97 339.872 367.509 341C369.848 341.583 372.086 342.513 374.149 343.76C375.26 344.453 376.146 345.453 376.699 346.64C377.159 347.889 377.159 349.261 376.699 350.51C376.228 351.697 375.443 352.734 374.429 353.51C373.463 354.255 372.395 354.858 371.259 355.3C369.035 356.134 366.706 356.656 364.339 356.85C359.661 357.229 354.955 356.994 350.339 356.15L350.409 356L352.689 358.16L350.289 356.16L349.999 356H350.289C354.893 356.61 359.556 356.64 364.169 356.09C366.439 355.802 368.661 355.217 370.779 354.35C372.779 353.48 374.779 352.1 375.469 350.11C375.824 349.141 375.824 348.078 375.469 347.11C374.992 346.189 374.264 345.423 373.369 344.9C371.405 343.785 369.284 342.973 367.079 342.49C362.629 341.4 358.019 340.73 353.419 339.99C351.119 339.62 348.809 339.25 346.489 338.73C344.177 338.216 341.902 337.548 339.679 336.73C335.239 335.14 331.009 333.13 326.679 331.49C322.463 329.736 317.992 328.672 313.439 328.34C311.172 328.205 308.897 328.295 306.649 328.61C304.417 328.897 302.228 329.451 300.129 330.26L299.889 330.35H299.729L298.729 330.23L297.799 330.1L295.949 329.82L292.269 329.26C289.809 328.89 287.359 328.47 284.909 328.07L270.199 325.61C265.299 324.797 260.402 323.953 255.509 323.08C250.669 322.24 245.769 321.38 240.889 320.46Z" fill="#263238"/>
<path d="M225.74 300.78L182.56 340.64C182.56 340.64 169.86 281.81 169.11 256.43C168.34 229.98 176.49 224.38 196.2 253.35C216 282.5 225.74 300.78 225.74 300.78Z" fill="#038C3E"/>
<path d="M204.229 265.38C203.976 265.526 203.704 265.633 203.419 265.7C203.011 265.791 202.585 265.773 202.185 265.649C201.785 265.524 201.424 265.297 201.139 264.99C200.672 264.55 200.084 264.257 199.451 264.149C198.818 264.04 198.167 264.121 197.579 264.38C197.035 264.633 196.574 265.035 196.249 265.54C195.959 265.99 195.609 266.41 195.349 266.89C195.829 266.6 196.249 266.28 196.699 265.99C197.041 265.671 197.462 265.449 197.919 265.35C198.323 265.236 198.75 265.229 199.157 265.331C199.564 265.432 199.937 265.639 200.239 265.93C200.682 266.392 201.255 266.709 201.881 266.839C202.508 266.969 203.159 266.907 203.749 266.66C204.096 266.523 204.411 266.319 204.679 266.06L204.229 265.38ZM208.229 294.98C208.099 294.46 208.039 293.98 207.909 293.4C207.772 293.92 207.665 294.448 207.589 294.98C207.552 295.456 207.408 295.917 207.169 296.33C206.96 296.692 206.66 296.993 206.299 297.204C205.938 297.414 205.528 297.527 205.109 297.53C204.465 297.519 203.833 297.705 203.297 298.062C202.761 298.419 202.347 298.931 202.109 299.53C201.866 300.073 201.81 300.682 201.949 301.26C202.049 301.81 202.109 302.32 202.239 302.84C202.378 302.32 202.485 301.793 202.559 301.26C202.619 300.815 202.768 300.386 202.999 300C203.224 299.645 203.538 299.354 203.91 299.158C204.282 298.961 204.699 298.866 205.119 298.88C205.771 298.873 206.406 298.67 206.941 298.297C207.476 297.924 207.887 297.399 208.119 296.79C208.297 296.21 208.332 295.596 208.219 295L208.229 294.98ZM173.699 241.41C173.599 240.86 173.529 240.34 173.409 239.83C173.272 240.351 173.161 240.878 173.079 241.41C173.04 241.875 172.9 242.325 172.669 242.73C172.459 243.09 172.159 243.39 171.797 243.598C171.436 243.807 171.027 243.918 170.609 243.92C170.269 243.924 169.932 243.982 169.609 244.09C169.549 244.56 169.489 245.04 169.439 245.54C169.813 245.325 170.239 245.221 170.669 245.24C171.314 245.227 171.94 245.021 172.465 244.648C172.991 244.276 173.393 243.754 173.619 243.15C173.809 242.589 173.836 241.986 173.699 241.41V241.41ZM190.149 323.41C189.694 323.366 189.253 323.223 188.859 322.99C188.506 322.763 188.217 322.449 188.021 322.077C187.825 321.706 187.728 321.29 187.739 320.87C187.731 320.218 187.527 319.584 187.155 319.049C186.782 318.515 186.258 318.104 185.649 317.87C185.096 317.651 184.489 317.606 183.909 317.74C183.359 317.87 182.849 317.93 182.299 318.06C182.828 318.205 183.366 318.312 183.909 318.38C184.372 318.414 184.822 318.547 185.229 318.77C185.585 318.985 185.881 319.287 186.089 319.647C186.297 320.007 186.411 320.414 186.419 320.83C186.423 321.471 186.615 322.096 186.97 322.63C187.326 323.163 187.829 323.58 188.419 323.83C188.97 324.059 189.577 324.115 190.159 323.99C190.701 323.916 191.239 323.812 191.769 323.68C191.209 323.56 190.699 323.5 190.149 323.37V323.41ZM175.589 280.9C175.13 280.856 174.687 280.701 174.299 280.45C173.94 280.227 173.647 279.911 173.45 279.537C173.254 279.163 173.16 278.743 173.179 278.32C173.162 277.671 172.954 277.041 172.583 276.508C172.212 275.975 171.692 275.562 171.089 275.32L170.839 275.24C170.839 275.66 170.949 276.08 171.009 276.51C171.269 276.736 171.477 277.014 171.622 277.326C171.767 277.638 171.844 277.976 171.849 278.32C171.851 278.961 172.041 279.588 172.397 280.122C172.753 280.655 173.258 281.072 173.849 281.32C174.399 281.549 175.003 281.615 175.589 281.51C176.139 281.38 176.649 281.32 177.159 281.18C176.643 281.041 176.119 280.934 175.589 280.86V280.9Z" fill="white"/>
<path d="M215.999 296C214.869 296.83 213.839 297.82 212.789 298.75L209.529 301.61C207.329 303.54 205.159 305.51 203.009 307.48C198.699 311.48 194.369 315.37 190.129 319.4C188.959 320.5 187.799 321.61 186.659 322.75C185.519 323.89 184.349 325.23 183.159 326.42C183.079 326.49 183.159 326.59 183.279 326.52C184.369 325.58 185.549 324.72 186.649 323.78C187.749 322.84 188.899 321.83 189.999 320.84C192.179 318.88 194.339 316.903 196.479 314.91C200.689 310.99 204.929 307.08 209.059 303.07C210.209 301.95 211.349 300.82 212.509 299.7C213.669 298.58 215.009 297.4 216.099 296.12C216.129 296.08 216.049 296 215.999 296Z" fill="#263238"/>
<path d="M211.879 273C211.879 272.89 211.649 273 211.679 273.08C212.307 275.276 213.1 277.422 214.049 279.5C213.479 278.62 212.929 277.73 212.359 276.86C210.499 274.04 208.599 271.25 206.749 268.42C206.734 268.402 206.713 268.39 206.689 268.386C206.666 268.382 206.642 268.386 206.622 268.398C206.601 268.41 206.586 268.429 206.578 268.451C206.57 268.474 206.57 268.498 206.579 268.52C209.469 273.66 212.139 278.93 215.189 283.99C218.239 289.05 223.779 297.66 225.509 300.41C224.429 301.74 222.769 303.16 221.579 304.57C221.469 304.7 221.689 304.85 221.809 304.74C223.229 303.44 225.179 302.14 226.559 300.62C226.729 300.43 220.629 289.83 215.259 281.39C214.209 278.52 213.099 275.71 211.879 273Z" fill="#263238"/>
<path d="M191.639 332.26C188.829 335.26 185.929 338.26 183.009 341.13L182.219 341.92L181.899 340.8C180.749 336.7 179.699 332.59 178.719 328.46L177.299 322.24L175.999 316C175.179 311.83 174.439 307.65 173.809 303.44C173.179 299.23 172.679 295 172.439 290.75L177.879 315.61L180.579 328.03L183.199 340.48L182.089 340.14C185.239 337.47 188.389 334.81 191.639 332.26Z" fill="#263238"/>
<path d="M170.539 296C171.009 296.89 171.379 297.79 171.759 298.69L172.889 301.36C173.249 302.26 173.639 303.14 174.019 304.04C174.399 304.94 174.799 305.81 175.139 306.75C173.782 305.294 172.707 303.598 171.969 301.75C171.185 299.923 170.702 297.981 170.539 296V296Z" fill="#263238"/>
<path d="M231.398 238C230.985 240.383 230.448 242.743 229.788 245.07C229.257 247.186 228.531 249.248 227.618 251.23C225.858 254.79 222.808 257.96 218.438 258.6C216.417 258.817 214.373 258.626 212.427 258.039C210.48 257.452 208.672 256.479 207.108 255.18C203.748 252.55 201.248 249 198.978 245.57C197.578 243.45 196.258 241.27 195.048 239.04C194.438 237.91 193.818 236.79 193.258 235.63C192.698 234.47 192.258 233.3 191.588 232.18C191.538 232.09 191.348 232.18 191.388 232.24C192.558 234.86 196.058 243.13 197.288 245.24C199.518 249.02 201.978 252.9 205.438 255.85C208.732 258.82 213.057 260.384 217.488 260.21C219.618 260.054 221.673 259.357 223.458 258.185C225.243 257.012 226.699 255.403 227.688 253.51C228.852 251.248 229.671 248.824 230.118 246.32C230.698 243.58 231.118 240.81 231.458 238.04C231.468 237.94 231.408 237.94 231.398 238Z" fill="#263238"/>
<path d="M406.549 255.34C406.549 272.14 393.339 293.67 368.209 293.67C343.079 293.67 329.869 272.14 329.869 255.34C329.869 244.52 334.709 233.67 340.949 223.54C341.279 239.87 356.149 247.36 368.749 242.34C377.389 238.9 378.929 231.34 384.419 227.65C389.909 223.96 396.889 225.92 400.169 231.93C403.999 239.56 406.549 247.45 406.549 255.34Z" fill="#0BD9D9"/>
<path d="M406.549 255.34C406.549 272.14 393.339 293.67 368.209 293.67C343.079 293.67 329.869 272.14 329.869 255.34C329.869 224.9 368.209 194.25 368.209 179.71V180.12C368.409 187.66 369.509 196.52 365.209 208.79C363.759 214.14 362.289 220.08 362.209 224.13C362.209 228.91 364.429 230.44 364.859 232.62C365.719 237.03 361.629 239.27 358.679 236.47C357.309 235.18 356.679 232.34 357.109 228.47C353.109 241.96 355.109 253.39 366.559 259.53C385.689 269.8 404.789 250.29 400.149 231.97C403.999 239.56 406.549 247.46 406.549 255.34Z" fill="#0BD9D9"/>
<path d="M364.87 239C365.53 239.002 366.174 239.2 366.722 239.568C367.27 239.936 367.697 240.458 367.948 241.069C368.199 241.679 368.264 242.35 368.134 242.998C368.004 243.645 367.685 244.239 367.218 244.705C366.75 245.171 366.155 245.488 365.507 245.617C364.86 245.745 364.189 245.678 363.579 245.425C362.969 245.172 362.448 244.744 362.082 244.195C361.715 243.646 361.52 243 361.52 242.34C361.52 241.901 361.606 241.465 361.775 241.06C361.943 240.654 362.19 240.285 362.501 239.975C362.813 239.664 363.182 239.419 363.588 239.251C363.995 239.084 364.43 238.999 364.87 239" fill="#0BD9D9"/>
<path d="M376.78 223.37C377.575 223.37 378.22 222.725 378.22 221.93C378.22 221.134 377.575 220.49 376.78 220.49C375.985 220.49 375.34 221.134 375.34 221.93C375.34 222.725 375.985 223.37 376.78 223.37Z" fill="#0BD9D9"/>
<path d="M380.559 209C385.289 208.45 390.049 214.31 395.439 223.72C393.611 221.767 391.261 220.379 388.669 219.72C385.219 218.95 383.389 219.72 379.299 218.18C378.29 217.802 377.439 217.091 376.887 216.166C376.335 215.24 376.114 214.154 376.261 213.087C376.407 212.019 376.913 211.033 377.694 210.29C378.475 209.547 379.485 209.093 380.559 209V209Z" fill="#0BD9D9"/>
<path d="M402.839 271.65C402.839 271.65 392.619 290.4 372.629 288.82C360.209 287.82 355.339 281.75 352.919 276.36C350.829 271.71 345.729 272.76 345.729 276.98C345.729 281.2 351.799 285.78 351.799 285.78C349.042 284.744 346.59 283.031 344.668 280.8C342.746 278.568 341.415 275.89 340.799 273.01C338.799 264.6 331.129 265.42 332.119 272.76C333.419 282.4 344.309 295.67 367.369 295.18C393.329 294.61 402.839 271.65 402.839 271.65Z" fill="#72DBF2"/>
<path d="M348.51 266.27C348.51 266.931 348.314 267.577 347.947 268.126C347.58 268.675 347.059 269.103 346.448 269.356C345.838 269.609 345.166 269.675 344.518 269.546C343.871 269.417 343.275 269.099 342.808 268.632C342.341 268.165 342.023 267.57 341.894 266.922C341.765 266.274 341.832 265.602 342.084 264.992C342.337 264.382 342.765 263.86 343.314 263.493C343.864 263.126 344.51 262.93 345.17 262.93C345.609 262.929 346.044 263.014 346.45 263.182C346.856 263.349 347.224 263.595 347.535 263.906C347.845 264.216 348.091 264.585 348.259 264.99C348.426 265.396 348.511 265.831 348.51 266.27V266.27Z" fill="#72DBF2"/>
<path d="M376.48 273.24C376 274.53 376.8 274.58 376.85 275.12C376.9 275.66 376.85 276.67 375.3 278.23C373.75 279.79 371.16 279.47 370.62 280.11C370.08 280.75 369.17 283.49 367.88 284.41C366.59 285.33 366.38 284.78 364.55 285.16C362.72 285.54 361.33 287.9 360.79 289.03C360.25 290.16 360.9 292.03 359.61 292.09C358.32 292.15 357.73 289.35 356.55 287.85C355.525 286.498 354.861 284.909 354.62 283.23C354.24 281.45 354.83 277.75 354.62 276.3C354.41 274.85 350.54 272.3 349.14 270.5C347.74 268.7 345.81 265.18 345.91 264C346.068 262.836 346.644 261.77 347.53 261C348.17 260.52 347.9 260.25 348.01 259.82C348.12 259.39 348.65 259.28 348.76 258.75C348.788 258.309 348.726 257.868 348.578 257.452C348.431 257.036 348.2 256.654 347.9 256.33C347.37 256.06 346.99 256.97 346.67 256.81C346.35 256.65 345.38 255.52 345 255.42C344.62 255.32 344.73 256.11 344.2 255.09C343.67 254.07 343.39 251.49 342.96 251.09C342.53 250.69 342.21 251.84 341.19 251.09C340.17 250.34 339.74 248.88 339.31 248.67C338.88 248.46 338.31 248.72 337.85 247.86C337.39 247 338.23 245.44 337.85 245.61C337.47 245.78 336.62 247 336.41 245.82C336.2 244.64 337.48 240.67 337.27 238.52C337.176 237.401 337.305 236.274 337.648 235.205C337.991 234.136 338.543 233.145 339.27 232.29C339.27 232.29 339.48 231.1 339.7 230.35C339.92 229.6 344.53 226.59 345.07 225.73C345.292 225.248 345.421 224.729 345.45 224.2C350.641 220.375 356.717 217.929 363.11 217.09C363 217.62 362.9 218.09 362.8 218.65C362.19 218.81 361.8 218.99 361.8 219.18C361.8 219.37 362.19 219.36 362.69 219.39C362.52 220.39 362.38 221.39 362.3 222.29C361.8 222 361.18 221.29 360.51 221.22C359.84 221.15 359.08 221.76 358.59 221.83C358.1 221.9 357.51 221.29 356.75 221.44C355.99 221.59 355.82 222.22 355.43 222.44C355.04 222.66 354.1 222.69 354 223.27C353.9 223.85 355.18 224.16 355.5 224.52C355.82 224.88 355.11 226.1 355.43 226.35C355.75 226.6 357.76 224.84 358.26 224.41C358.76 223.98 359.19 222.12 360.26 222.16C361.33 222.2 361.7 224.02 362.05 224.16C362.1 224.169 362.151 224.169 362.2 224.16C362.183 225.523 362.414 226.879 362.88 228.16H362.81C362.3 228.31 360.98 226.8 360.62 227.23C360.26 227.66 360.98 229.03 361.34 229.35C361.7 229.67 363.02 229.85 363.13 230.21C363.24 230.57 362.23 231.35 361.02 231.28C359.81 231.21 358.8 230.28 358.33 230.67C357.86 231.06 358.11 232.1 357.79 232.46C357.584 232.601 357.34 232.678 357.09 232.68C356.9 231.226 356.9 229.754 357.09 228.3C356.63 229.86 356.25 231.39 355.95 232.89C355.532 232.983 355.151 233.195 354.85 233.5C353.99 234.43 353.59 235.83 352.73 236.62C351.87 237.41 351.48 236.4 350.33 237.51C349.18 238.62 349.01 241.09 348.97 241.95C348.93 242.81 348.97 243.49 348.69 243.38C348.41 243.27 348 242.52 347.9 242.06C347.8 241.6 348.15 240.81 348.15 240.52C347.51 239.619 346.594 238.952 345.54 238.62C344.54 238.48 343.71 239.26 342.99 239.84C342.27 240.42 340.99 240.3 340.52 240.77C340.05 241.24 339.7 245.35 340.06 246.32C340.42 247.29 340.88 247.32 342.06 246.79C343.24 246.26 342.56 245.32 343.24 245.53C343.539 245.652 343.794 245.862 343.973 246.131C344.151 246.4 344.244 246.717 344.24 247.04C344.24 247.61 342.88 248.97 343.05 249.36C343.22 249.75 344.42 249.29 344.99 249.47C345.56 249.65 345.85 250.01 345.67 251.47C345.49 252.93 345.6 254.08 346.46 254.57C347.32 255.06 347.8 253.87 348.18 254.03C348.56 254.19 349.09 255.03 349.62 255.03C350.15 255.03 349.89 254.5 350.91 254.17C351.93 253.84 351.56 253.64 351.78 252.99C351.814 252.825 351.884 252.67 351.983 252.534C352.083 252.399 352.211 252.286 352.358 252.205C352.505 252.123 352.668 252.074 352.836 252.061C353.004 252.048 353.172 252.072 353.33 252.13C354.03 252.46 353.55 252.94 353.6 253.48C353.65 254.02 354.89 254.07 355.86 254.39C356.83 254.71 357.36 254.39 359.29 255.03C361.22 255.67 361.29 257.61 362.14 257.93C362.892 258.066 363.656 258.129 364.42 258.12C365.08 258.56 365.79 258.99 366.53 259.39C367.27 259.79 367.94 260.1 368.65 260.39C369.32 261.73 369.22 263.28 369.93 263.83C370.93 264.58 374.49 265.61 375.93 265.83C377.37 266.05 377.54 265.13 378.67 265.4C379.222 265.455 379.737 265.699 380.129 266.091C380.521 266.483 380.765 266.998 380.82 267.55C381.16 269.07 377 272 376.48 273.24Z" fill="#038C3E"/>
<path d="M347.619 245.77C347.619 246.07 348.549 246.2 349.619 246.77C350.689 247.34 351.089 249.17 351.619 249.13C352.149 249.09 352.019 248.27 352.229 248.06C352.322 247.995 352.398 247.909 352.45 247.809C352.503 247.709 352.53 247.598 352.53 247.485C352.53 247.372 352.503 247.26 352.45 247.16C352.398 247.06 352.322 246.974 352.229 246.91C351.659 246.45 351.099 245.44 350.049 245.3C348.999 245.16 348.829 244.73 348.359 244.76C348.24 244.766 348.123 244.799 348.018 244.856C347.912 244.914 347.821 244.993 347.75 245.09C347.68 245.186 347.631 245.298 347.608 245.415C347.586 245.533 347.589 245.654 347.619 245.77V245.77Z" fill="#038C3E"/>
<path d="M353.529 248.78C353.369 249.22 353.529 249.53 354.669 249.78C355.809 250.03 356.889 249.49 356.529 249.26C356.169 249.03 355.639 249.13 355.849 248.74C356.059 248.35 355.989 247.74 355.059 247.88C354.129 248.02 353.669 248.38 353.529 248.78Z" fill="#038C3E"/>
<path d="M357.249 250C357.2 249.923 357.163 249.838 357.139 249.75C357.169 249.81 357.209 249.89 357.249 250Z" fill="#038C3E"/>
<path d="M406.55 255.13C406.55 255.4 406.55 255.66 406.55 255.92C406.55 256.18 406.55 256.37 406.55 256.59V257.25V257.79C406.06 264.811 403.637 271.56 399.55 277.29L399.28 277.68C402.93 272.1 403.64 264.68 403.74 263.53C403.84 262.38 403.28 262.31 403.85 260.2C404.027 259.369 404.029 258.511 403.857 257.68C403.685 256.848 403.342 256.062 402.85 255.37C402.42 254.9 401.49 255.05 400.74 255.51C399.99 255.97 400.52 256.34 400.02 256.51C399.52 256.68 399.02 256.41 398.56 256.44C398.1 256.47 397.66 257.66 396.66 257.62C395.66 257.58 395.01 256.15 394.26 255.13C394.182 255.029 394.098 254.932 394.01 254.84C396.52 252.195 398.426 249.037 399.598 245.585C400.771 242.132 401.18 238.466 400.8 234.84V234.84C402.632 237.771 404.058 240.936 405.04 244.25V244.35C406.052 247.853 406.56 251.483 406.55 255.13V255.13Z" fill="#038C3E"/>
<path opacity="0.6" d="M333.11 248.3C334.54 230.49 360.11 199.15 360.11 199.15C360.11 199.15 345.21 220.15 343.53 233.96C342.67 241.13 343.59 246.11 342.42 251.69C341 258.51 332.18 259.83 333.11 248.3Z" fill="white"/>
<path opacity="0.6" d="M355.06 289.81C356.498 290.212 357.961 290.52 359.44 290.73C360.91 290.95 362.44 291.1 363.88 291.18C366.854 291.341 369.837 291.19 372.78 290.73C374.245 290.51 375.694 290.2 377.12 289.8C378.545 289.413 379.941 288.928 381.3 288.35C384.02 287.205 386.573 285.698 388.89 283.87C391.195 282.033 393.273 279.929 395.08 277.6C396.884 275.276 398.462 272.785 399.79 270.16C401.124 267.526 402.222 264.778 403.07 261.95C403.5 260.53 403.88 259.09 404.18 257.64C404.507 256.185 404.751 254.713 404.91 253.23H405.05C405.094 256.26 404.759 259.284 404.05 262.23C403.713 263.705 403.296 265.16 402.8 266.59C402.29 268.02 401.71 269.43 401.07 270.81C400.416 272.185 399.681 273.521 398.87 274.81C398.047 276.093 397.152 277.328 396.19 278.51C395.95 278.8 395.69 279.09 395.44 279.37L395.07 279.81L394.68 280.22L393.89 281.05L393.07 281.84C392.54 282.38 391.95 282.84 391.38 283.37C391.1 283.62 390.79 283.85 390.5 284.09C390.21 284.33 389.92 284.58 389.6 284.79C387.172 286.626 384.504 288.12 381.67 289.23C380.264 289.794 378.821 290.258 377.35 290.62C375.886 290.998 374.4 291.282 372.9 291.47C369.914 291.836 366.898 291.893 363.9 291.64C362.4 291.513 360.91 291.313 359.43 291.04C357.933 290.787 356.453 290.439 355 290L355.06 289.81Z" fill="white"/>
<path d="M282 92.5502C282.944 92.0682 283.92 91.6505 284.92 91.3002C285.947 90.9191 287.019 90.6737 288.11 90.5702C288.447 90.54 288.787 90.5774 289.11 90.6802C289.219 90.7117 289.324 90.7589 289.42 90.8202L289.61 90.9602C289.74 91.0502 289.84 91.1502 289.96 91.2402C290.38 91.6202 290.75 92.0102 291.12 92.4102C291.84 93.2202 292.47 94.0602 293.12 94.9302L292.33 94.6502C293.399 94.3446 294.489 94.114 295.59 93.9602C296.154 93.884 296.721 93.8439 297.29 93.8401C297.591 93.8443 297.892 93.8677 298.19 93.9102C298.357 93.9323 298.521 93.9725 298.68 94.0302C298.849 94.0944 299.013 94.1713 299.17 94.2602C299.66 94.5992 300.092 95.0145 300.45 95.4902C300.8 95.9302 301.11 96.3902 301.45 96.8502C302.033 97.7748 302.541 98.7446 302.97 99.7502C302.27 98.9202 301.59 98.0702 300.88 97.2802C300.52 96.8802 300.16 96.4902 299.78 96.1402C299.443 95.7919 299.06 95.4924 298.64 95.2502C298.227 95.1178 297.791 95.0735 297.36 95.1202C296.85 95.162 296.342 95.2321 295.84 95.3302C294.84 95.5202 293.78 95.7702 292.77 96.0402L292.27 96.1802L291.98 95.7602C291.39 94.9202 290.76 94.0902 290.12 93.3002C289.808 92.9019 289.474 92.5213 289.12 92.1602C289.04 92.0902 288.95 91.9902 288.87 91.9302L288.76 91.8302C288.582 91.7587 288.392 91.7214 288.2 91.7202C287.193 91.717 286.188 91.8141 285.2 92.0102C284.06 92.1502 283 92.3602 282 92.5502Z" fill="#263238"/>
<path d="M293.49 123.63C294.738 122.645 296.051 121.747 297.42 120.94C298.814 120.077 300.318 119.404 301.89 118.94C302.375 118.806 302.88 118.761 303.38 118.81C303.548 118.829 303.713 118.87 303.87 118.93L304.2 119.08C304.42 119.18 304.59 119.29 304.78 119.39C305.487 119.819 306.171 120.283 306.83 120.78C308.12 121.78 309.31 122.78 310.5 123.89L309.25 123.71C310.733 122.939 312.266 122.271 313.84 121.71C314.646 121.436 315.467 121.213 316.3 121.04C316.746 120.951 317.197 120.894 317.65 120.87C317.9 120.856 318.15 120.856 318.4 120.87C318.665 120.918 318.925 120.985 319.18 121.07C320.001 121.429 320.761 121.915 321.43 122.51C322.064 123.047 322.669 123.618 323.24 124.22C324.362 125.414 325.389 126.695 326.31 128.05C325.04 127.05 323.81 125.98 322.52 125.05C321.88 124.57 321.24 124.05 320.58 123.69C319.981 123.266 319.325 122.929 318.63 122.69C317.988 122.611 317.336 122.672 316.72 122.87C315.982 123.075 315.257 123.326 314.55 123.62C313.1 124.19 311.64 124.87 310.25 125.56L309.55 125.91L309 125.38C307.9 124.32 306.72 123.29 305.56 122.3C304.994 121.81 304.404 121.35 303.79 120.92C303.64 120.83 303.49 120.72 303.35 120.65L303.15 120.54C303.15 120.54 303.15 120.54 303.07 120.54C302.789 120.489 302.501 120.489 302.22 120.54C300.734 120.84 299.281 121.282 297.88 121.86C296.42 122.43 295 123 293.49 123.63Z" fill="#263238"/>
<path d="M109.541 205.74C110.4 205.113 111.299 204.542 112.231 204.03C113.17 203.479 114.179 203.059 115.231 202.78C115.559 202.706 115.897 202.689 116.231 202.73C116.341 202.749 116.448 202.779 116.551 202.82L116.771 202.93C116.911 203 117.021 203.08 117.151 203.15C117.616 203.458 118.064 203.792 118.491 204.15C119.331 204.83 120.091 205.55 120.871 206.3L120.041 206.16C121.044 205.684 122.08 205.279 123.141 204.95C123.685 204.779 124.239 204.646 124.801 204.55C125.099 204.502 125.4 204.476 125.701 204.47C125.868 204.461 126.034 204.461 126.201 204.47C126.377 204.511 126.55 204.561 126.721 204.62C127.26 204.876 127.756 205.213 128.191 205.62C128.611 206 128.991 206.4 129.361 206.8C130.096 207.619 130.764 208.495 131.361 209.42C130.531 208.71 129.731 207.99 128.891 207.33C128.489 206.97 128.065 206.636 127.621 206.33C127.231 206.044 126.804 205.811 126.351 205.64C125.924 205.571 125.486 205.598 125.071 205.72C124.573 205.844 124.083 205.994 123.601 206.17C122.601 206.52 121.601 206.94 120.691 207.38L120.221 207.59L119.871 207.23C119.151 206.5 118.391 205.78 117.631 205.1C117.266 204.747 116.882 204.413 116.481 204.1L116.191 203.91L116.061 203.83C115.872 203.798 115.68 203.798 115.491 203.83C114.495 203.996 113.517 204.258 112.571 204.61C111.521 205 110.541 205.38 109.541 205.74Z" fill="#263238"/>
<path d="M83.4902 201.52C84.4038 200.206 85.4062 198.957 86.4902 197.78C87.5654 196.543 88.7994 195.453 90.1602 194.54C90.5804 194.265 91.0485 194.072 91.5402 193.97C91.7099 193.954 91.8806 193.954 92.0502 193.97L92.4102 194.02C92.6402 194.02 92.8402 194.1 93.0602 194.14C93.8591 194.338 94.6469 194.578 95.4202 194.86C96.9502 195.41 98.4202 196.06 99.8502 196.74L98.6102 196.94C99.796 195.775 101.062 194.696 102.4 193.71C103.088 193.205 103.81 192.747 104.56 192.34C104.955 192.118 105.366 191.928 105.79 191.77C106.029 191.689 106.273 191.625 106.52 191.58C106.79 191.565 107.06 191.565 107.33 191.58C108.218 191.679 109.085 191.915 109.9 192.28C110.665 192.612 111.413 192.982 112.14 193.39C113.567 194.195 114.928 195.111 116.21 196.13C114.69 195.52 113.21 194.9 111.69 194.37C110.94 194.1 110.18 193.84 109.43 193.65C108.734 193.431 108.01 193.31 107.28 193.29C106.647 193.413 106.047 193.669 105.52 194.04C104.873 194.455 104.252 194.91 103.66 195.4C102.45 196.4 101.26 197.4 100.13 198.53L99.5702 199.07L98.8902 198.73C97.5202 198.04 96.0902 197.4 94.6802 196.81C93.9967 196.505 93.2955 196.241 92.5802 196.02C92.4175 195.963 92.2503 195.919 92.0802 195.89H91.8602C91.8602 195.89 91.8602 195.89 91.7802 195.89C91.4926 195.923 91.2141 196.011 90.9602 196.15C89.6304 196.868 88.3744 197.716 87.2102 198.68C85.9202 199.51 84.7202 200.52 83.4902 201.52Z" fill="#263238"/>
<path d="M256.311 116C257.209 114.689 258.194 113.439 259.261 112.26C260.339 111.02 261.577 109.927 262.941 109.01C263.361 108.739 263.83 108.549 264.321 108.45C264.487 108.434 264.654 108.434 264.821 108.45H265.181C265.421 108.45 265.621 108.53 265.831 108.57C266.633 108.768 267.424 109.008 268.201 109.29C269.721 109.84 271.201 110.49 272.621 111.17L271.381 111.37C272.57 110.205 273.84 109.126 275.181 108.14C275.867 107.635 276.586 107.174 277.331 106.76C277.731 106.546 278.145 106.359 278.571 106.2C278.805 106.118 279.046 106.054 279.291 106.01C279.56 105.985 279.831 105.985 280.101 106.01C280.989 106.105 281.857 106.341 282.671 106.71C283.451 107.04 284.191 107.42 284.911 107.81C286.337 108.62 287.697 109.539 288.981 110.56C287.461 109.95 285.981 109.33 284.461 108.8C283.721 108.518 282.967 108.278 282.201 108.08C281.508 107.857 280.788 107.736 280.061 107.72C279.422 107.837 278.818 108.093 278.291 108.47C277.645 108.883 277.027 109.338 276.441 109.83C275.221 110.83 274.031 111.83 272.911 112.96L272.341 113.5L271.661 113.16C270.291 112.47 268.861 111.83 267.461 111.23C266.774 110.934 266.074 110.674 265.361 110.45C265.197 110.395 265.03 110.352 264.861 110.32H264.631C264.631 110.32 264.631 110.32 264.551 110.32C264.265 110.356 263.988 110.441 263.731 110.57C262.414 111.262 261.165 112.075 260.001 113C258.741 114 257.541 115 256.311 116Z" fill="#263238"/>
<path d="M475.762 60.8098C475.572 67.8098 468.922 76.5698 460.062 76.3998C451.202 76.2298 445.442 68.3998 443.382 67.0498C442.742 66.6498 440.172 66.2798 436.902 65.9598C433.632 65.6398 429.652 65.4998 426.302 65.4498H425.942C422.592 65.4498 418.652 65.6298 415.352 65.9598C412.052 66.2898 409.502 66.6498 408.862 67.0498C406.802 68.3698 401.042 76.2198 392.182 76.3998C383.322 76.5798 376.672 67.8098 376.482 60.8098C376.292 53.8098 381.482 44.9998 388.942 44.1998C396.402 43.3998 403.032 49.7298 406.822 51.8998C408.042 52.5998 410.772 52.9798 414.102 53.1498C416.732 53.2898 422.012 53.3598 426.412 53.3898C430.812 53.4198 435.632 53.2798 438.142 53.1498C441.472 52.9798 444.202 52.5998 445.422 51.8998C449.212 49.7298 455.812 43.3998 463.302 44.1998C470.792 44.9998 475.942 53.7998 475.762 60.8098Z" fill="#455A64"/>
<path d="M439.201 53.0898V66.2098C438.491 66.1198 437.721 66.0398 436.901 65.9598C433.591 65.6298 429.651 65.4998 426.301 65.4498H425.941C422.591 65.4498 418.651 65.6298 415.351 65.9598C414.531 66.0398 413.761 66.1198 413.041 66.2098V53.0898L414.101 53.1498C416.731 53.2898 422.011 53.3598 426.411 53.3898C430.811 53.4198 435.631 53.2798 438.141 53.1498L439.201 53.0898Z" fill="#37474F"/>
<path d="M435.72 49.7197H416.51V83.0497H435.72V49.7197Z" fill="#455A64"/>
<path d="M500.001 94.4897V137.42C500.001 137.42 395.081 137.77 393.401 138.89L392.921 139.24C388.271 141.3 387.431 157.99 387.521 162.86H349.611C349.791 154.26 350.611 124.34 353.141 119.11C355.061 115.11 363.581 106.79 371.651 101.22C372.481 100.64 373.311 100.09 374.141 99.5798C374.808 99.1531 375.475 98.7531 376.141 98.3797C378.353 97.0048 380.825 96.0994 383.401 95.7197C385.441 95.5697 484.931 94.5397 500.001 94.4897Z" fill="#455A64"/>
<path opacity="0.3" d="M352.801 145.11C352.699 139.702 353.034 134.294 353.801 128.94C354.169 126.224 354.778 123.547 355.621 120.94L355.981 119.94C356.051 119.78 356.091 119.62 356.171 119.44C356.251 119.26 356.361 119.06 356.461 118.9C356.839 118.285 357.263 117.7 357.731 117.15C358.631 116.07 359.571 115.08 360.541 114.15C364.429 110.353 368.594 106.85 373.001 103.67C374.101 102.88 375.221 102.11 376.371 101.38C377.516 100.615 378.731 99.9624 380.001 99.4299C380.181 99.3699 380.391 99.3199 380.561 99.2799L381.071 99.1899C381.401 99.1299 381.741 99.0899 382.071 99.0399C382.741 98.9499 383.421 98.8799 384.071 98.8299C385.423 98.7351 386.779 98.7351 388.131 98.8299C386.791 99.0099 385.471 99.2599 384.131 99.5499C383.481 99.6899 382.831 99.8399 382.191 100.01L381.191 100.27L380.711 100.4L380.311 100.55C379.153 101.143 378.049 101.836 377.011 102.62C375.931 103.39 374.881 104.21 373.831 105.04C371.731 106.69 369.691 108.42 367.671 110.17C365.651 111.92 363.671 113.72 361.781 115.58C360.841 116.51 359.911 117.46 359.071 118.44C358.666 118.91 358.295 119.408 357.961 119.93C357.683 120.475 357.435 121.036 357.221 121.61C356.343 124.102 355.651 126.656 355.151 129.25C354.241 134.44 353.501 139.76 352.801 145.11Z" fill="white"/>
<path opacity="0.3" d="M370.16 111.65C372.085 109.529 374.208 107.597 376.5 105.88C377.644 105.015 378.832 104.211 380.06 103.47C381.281 102.669 382.636 102.093 384.06 101.77C383.421 102.074 382.814 102.443 382.25 102.87C381.67 103.27 381.1 103.7 380.53 104.12L377.14 106.68C374.83 108.37 372.58 110.09 370.16 111.65Z" fill="white"/>
<path d="M447 91.1997H405.24V142.74H447V91.1997Z" fill="#37474F"/>
<path d="M391.451 155.99H344.971V173.69H391.451V155.99Z" fill="#37474F"/>
<path d="M440.111 83.0498H412.141V91.1998H440.111V83.0498Z" fill="#37474F"/>
<path d="M440.101 91.2H412.141V88.29L440.101 89.26V91.2Z" fill="#263238"/>
</g>
<defs>
<clipPath id="clip0_91_1117">
<rect width="500" height="500" fill="white"/>
</clipPath>
</defs>
</svg>
